<svg width="1145" height="452" viewBox="0 0 1145 452" fill="none" xmlns="http://www.w3.org/2000/svg">
<path d="M107.099 447.1C106.599 446.3 105.799 446.7 105.199 446.6C97.8993 446.1 90.7993 444.6 84.5993 440.4C81.5993 438.3 79.2993 435.5 77.8993 432C74.4993 423.5 77.3993 415.7 81.0993 408.3C88.0993 393.9 98.8993 382.2 110.599 371.4C139.399 344.6 172.499 324.2 207.799 307.1C231.199 295.8 255.399 286.4 280.799 280.6C292.099 278 303.499 276.1 315.199 276.1C322.399 276.1 329.599 276.7 336.399 279.1C348.399 283.4 353.999 293.6 350.099 306C345.899 319.4 337.799 330.2 328.399 340.3C309.399 360.8 287.199 377.3 263.599 392C234.899 409.9 204.599 424.6 172.499 435.3C155.599 440.9 138.499 445.3 120.699 446.6C120.299 446.6 119.899 446.6 119.699 447.1C115.399 447.1 111.199 447.1 107.099 447.1ZM179.899 398.8C181.399 398.4 182.799 398.6 184.199 398.4C192.399 397.2 199.999 394.1 206.999 389.8C225.699 378.5 242.999 365.3 258.899 350.5C259.999 349.5 261.099 348.4 262.199 347.4C263.399 346.3 264.299 345 262.999 343.5C261.899 342.2 260.399 342.6 259.199 343.6C258.799 344 258.299 344.2 257.799 344.6C253.699 347.7 249.599 351 245.399 354C230.699 364.6 215.499 374.4 198.399 380.7C190.599 383.6 182.599 385.2 174.299 383.8C165.199 382.2 157.099 378.1 149.999 372.3C148.599 371.2 147.299 370 145.899 369C144.899 368.2 143.699 367.8 142.599 368.8C141.499 369.7 141.599 370.9 142.299 372.1C146.899 380.2 152.299 387.5 160.299 392.8C166.499 396.6 173.099 397.7 179.899 398.8Z" fill="white"/>
<path d="M1134.2 46.3C1133.4 46.8 1133.8 47.6 1133.6 48.2C1131.5 59.8 1125.7 68.4 1114.3 72.6C1105 76 1095.7 75.7 1086.8 71.7C1079.6 68.5 1074.6 62.8 1071.9 55.3C1068.8 46.9 1068.7 38.4 1071.8 30C1074.8 21.6 1080.4 15.6 1088.8 12.4C1098.1 8.80002 1107.5 9.10002 1116.6 13.1C1124 16.4 1129 22.2 1131.9 29.7C1133 32.7 1133.4 35.9 1134.3 39C1134.2 41.5 1134.2 43.9 1134.2 46.3ZM1079 42.8C1079.1 47.5 1080.1 52.2 1082.7 56.5C1085.5 61.1 1089.6 64.2 1094.8 65.6C1099.2 66.8 1103.6 66.8 1108.1 65.7C1113.8 64.3 1118.3 61 1121.1 56C1124.1 50.7 1125 44.8 1124.2 38.7C1123.1 30.8 1119.6 24.6 1112.2 20.9C1109.4 19.5 1106.6 19.1 1103.7 18.8C1097.6 18.2 1091.8 19.6 1087.1 23.6C1081.4 28.4 1079.2 35.1 1079 42.8Z" fill="white"/>
<path d="M60.7996 324.6C59.1996 326.1 58.6996 325.6 57.9996 323.7C46.1996 290.8 33.6996 258.1 22.3996 225C18.8996 214.6 15.0996 204.2 12.7996 193.4C9.7996 179.5 8.9996 165.6 12.3996 151.6C15.6996 138.1 22.5996 126.7 32.1996 116.9C35.3996 113.7 38.6996 110.8 42.2996 108.1C43.3996 107.3 43.6996 106.7 42.7996 105.5C37.1996 97.8 36.5996 89.4 40.2996 81C42.9996 74.8 47.6996 70.2 54.2996 67.7C58.8996 65.9 63.4996 65.7 68.1996 66.5C71.4996 67.1 74.7996 68.5 77.4996 70.6C80.8996 73.2 83.7996 76.2 85.4996 80.2C86.1996 81.8 86.9996 82.1 88.7996 81.5C98.9996 77.6 109.6 75.4 120.6 75.5C134.6 75.7 147.5 79.8 159.4 87C172.8 95 183.4 106 193.3 117.7C211.3 138.9 227.6 161.4 245.3 182.9C251.6 190.6 257.8 198.5 265 205.5C273.1 213.3 282.6 218.4 293.8 219.2C306.2 220.2 316.7 225.3 326.2 232.7C335.1 239.5 342.8 247.4 348.9 256.8C351.7 261.1 354.2 265.6 355.6 271.2C351.4 268.7 347.7 266.3 343.6 264.5C332.1 259.4 320 257.8 307.5 258.9C283.2 261.1 260.3 268.7 237.7 277C187.9 295.2 143.3 322.3 104 357.8C94.9996 365.9 86.1996 374.3 78.7996 384C68.6996 397 62.6996 411.5 62.4996 428.1C62.4996 428.7 62.3996 429.2 62.3996 429.8C62.3996 429.9 62.2996 429.9 62.1996 430.2C58.2996 426.3 55.1996 421.9 52.6996 417.1C48.3996 408.9 46.5996 400.1 47.9996 390.9C48.8996 385.2 50.9996 379.8 53.6996 374.7C55.5996 371.1 57.5996 367.6 59.5996 364C60.0996 363.2 60.6996 362.4 61.1996 361.6C66.3996 353.3 71.8996 345.3 78.3996 338C90.4996 324.1 104.7 312.6 119.4 301.7C151.5 277.9 187 260.3 224.5 246.7C236.9 242.2 249.4 238.2 262.1 234.6C263.4 234.2 264.6 233.8 264.2 232C263.8 230.6 262.7 230.7 261.7 231C248.2 234.3 234.6 237 221.2 240.7C194.1 248.4 168.2 259.3 142.8 271.3C137 274 131.4 277.5 125.1 279.1C114.8 281.8 106.4 278 101.6 269.2C83.8996 236.9 66.5996 204.5 50.3996 171.4C45.9996 162.4 43.0996 153 43.1996 142.9C43.1996 135 44.7996 127.4 47.8996 120.1C48.6996 118.3 49.6996 116.6 49.9996 114.2C45.3996 117.5 41.3996 120.8 38.0996 125C32.3996 132.3 29.1996 140.5 28.9996 149.7C28.7996 160.6 30.6996 171.3 33.8996 181.8C39.9996 201.9 47.5996 221.5 54.9996 241.1C61.1996 257.5 68.0996 273.7 73.2996 290.4C76.3996 300.2 75.1996 309.2 67.9996 317.2C65.7996 319.9 63.0996 322 60.7996 324.6Z" fill="white"/>
<path d="M1045.4 243C1052.7 246.9 1059.2 251 1064.9 256.3C1075.3 265.8 1081.2 277.7 1083.2 291.5C1085.3 305.5 1084.4 319.4 1079.8 332.9C1074 350.1 1063.5 363.9 1048 373.6C1026.4 387.1 1002.7 390.6 977.8 388.4C963.8 387.2 950.4 383.6 938 376.9C914 363.9 899.5 344.2 895.6 317C895.1 313.7 895 310.3 894.7 307C894.6 305.8 894.8 305.2 896.3 305.2C910.6 305.3 924.9 305.3 939.2 305.2C941 305.2 940.9 306.2 941 307.3C941.2 312.6 942.6 317.5 945 322.2C948.9 329.7 954.8 335.2 962.2 339C978.9 347.5 996.3 348.1 1013.5 341.1C1027.5 335.4 1035.8 324.8 1037.2 309.3C1038 300.3 1036.2 292 1030.8 284.7C1027.5 280.2 1023.1 276.8 1018.2 274.2C1008.9 269.3 998.9 267.7 988.6 267.5C973.5 267.3 958.9 264.9 945 258.8C926 250.4 911.8 236.9 903.7 217.8C892 190.2 891.3 162 902.1 134C910.6 111.9 926.4 96.1 948 86.4C968.5 77.2 989.9 75.6 1011.8 79.6C1018.7 80.9 1025.2 83.3 1031.1 87.2C1032.6 88.2 1033.4 88.1 1034.5 86.6C1039.7 79.8 1045.2 73 1050.5 66.2C1051.5 64.9 1052.1 64.8 1053.4 65.8C1063.7 73.7 1074.1 81.6 1084.6 89.4C1086 90.4 1085.8 91 1084.9 92.2C1078.7 100 1072.6 107.9 1066.3 115.7C1065.3 116.9 1065.3 117.7 1066.3 118.9C1082 137.5 1086.5 159.3 1084.3 183C1083.3 193.4 1080.7 203.5 1075.9 212.8C1069.7 224.7 1061.4 234.7 1049.2 241C1048.1 241.5 1046.9 242.2 1045.4 243ZM991.6 119.9C985.9 120.1 982 120.4 978.2 121.3C962.4 125.2 951.3 134.8 945.3 149.8C939.3 164.8 939.3 180.2 945.1 195.4C948.9 205.4 955.5 213.3 964.9 218.6C976.9 225.3 989.6 226.7 1002.9 223.5C1010.6 221.6 1017.3 217.9 1023.1 212.5C1031.4 204.7 1036.1 195 1037.8 183.9C1040.3 167.7 1038.1 152.3 1028.1 138.8C1018.6 125.9 1005.5 120.2 991.6 119.9Z" fill="white"/>
<path d="M722.6 109C726.2 105.8 729.4 102.8 732.8 100.1C743.2 91.7 754.7 85.4 767.9 82.7C797.2 76.6 828.7 86.4 847 112.6C856.6 126.3 861.4 141.7 863.2 158.1C864 165.5 864.1 172.9 864.1 180.4C864.1 210 864.1 239.7 864.1 269.3C864.1 271.3 863.6 271.8 861.6 271.8C847.7 271.7 833.8 271.7 819.9 271.8C817.8 271.8 817.5 271.2 817.5 269.3C817.6 237.9 817.6 206.5 817.5 175.1C817.5 164.7 816 154.6 811 145.2C805.6 135.2 797.6 128.5 786.7 125.3C775.4 122.1 764.3 122.4 753.4 127.2C743.3 131.6 736 138.9 730.8 148.4C725.8 157.5 724.1 167.4 724.1 177.7C724.1 208.1 724.1 238.6 724.2 269C724.2 271.2 723.6 271.7 721.5 271.7C707.7 271.6 694 271.6 680.2 271.7C678.4 271.7 678 271.3 678 269.5C678.1 208.2 678.1 146.9 678 85.7C678 83.8 678.6 83.5 680.3 83.5C692.7 83.6 705.1 83.6 717.5 83.5C719.2 83.5 719.8 83.9 720 85.7C720.6 93.3 721.6 100.9 722.6 109Z" fill="white"/>
<path d="M471.8 105.1C474.5 101.9 476.6 98.4 479.4 95.4C488.9 85.2 500.9 80.6 514.5 79.4C525.5 78.4 536.4 79.2 547 82.4C556 85.1 564.4 89.2 571.4 95.6C572.5 96.6 572.6 97.3 571.9 98.6C565.5 110.8 559.1 123.1 552.8 135.4C552 137 551.4 137.1 550.1 136C543.5 130.4 535.9 126.7 527.3 125.7C512.5 123.9 498.4 125.7 486.3 135.4C480 140.5 476.1 147.4 473.8 155.1C472 161.4 471.4 168 471.4 174.5C471.4 206 471.4 237.4 471.4 268.9C471.4 270.9 471.1 271.6 468.8 271.6C455 271.5 441.1 271.5 427.3 271.6C425.4 271.6 424.8 271.2 424.8 269.2C424.9 208.2 424.9 147.2 424.8 86.1C424.8 84.2 425.3 83.7 427.2 83.7C440.1 83.8 452.9 83.8 465.8 83.7C467.4 83.7 468 84.1 468.2 85.7C469 91.5 470 97.2 470.9 103C471.3 103.7 471.2 104.4 471.8 105.1Z" fill="white"/>
<path d="M637.2 177.3C637.2 207.9 637.2 238.5 637.3 269.1C637.3 271.3 636.7 271.7 634.6 271.7C620.8 271.6 606.9 271.6 593.1 271.7C591.2 271.7 590.5 271.4 590.5 269.3C590.6 207.9 590.6 146.6 590.5 85.2C590.5 83.2 591.1 82.9 592.9 82.9C606.9 83 620.9 83 634.9 82.9C636.9 82.9 637.2 83.6 637.2 85.3C637.2 115.9 637.2 146.6 637.2 177.3Z" fill="white"/>
<path d="M60.7997 324.6C62.9997 322 65.6997 319.9 67.9997 317.3C75.0997 309.4 76.3997 300.4 73.2997 290.5C67.9997 273.7 61.0997 257.6 54.9997 241.2C47.5997 221.5 39.9997 202 33.8997 181.9C30.6997 171.5 28.7997 160.8 28.9997 149.8C29.1997 140.6 32.2997 132.4 38.0997 125.1C41.3997 120.9 45.3997 117.6 49.9997 114.3C49.5997 116.6 48.5997 118.4 47.8997 120.2C44.7997 127.5 43.1997 135.1 43.1997 143C43.0997 153.2 45.9997 162.5 50.3997 171.5C66.5997 204.5 83.8997 237 101.6 269.3C106.4 278.1 114.8 281.9 125.1 279.2C131.4 277.5 137 274.1 142.8 271.4C168.2 259.4 194.1 248.5 221.2 240.8C234.6 237 248.2 234.4 261.7 231.1C262.8 230.8 263.9 230.7 264.2 232.1C264.6 233.8 263.5 234.3 262.1 234.7C249.4 238.2 236.9 242.2 224.5 246.8C187 260.4 151.6 278 119.4 301.8C104.7 312.7 90.4997 324.3 78.3997 338.1C71.9997 345.5 66.3997 353.5 61.1997 361.7C60.6997 362.5 60.0997 363.3 59.5997 364.1C61.2997 354.4 62.0997 344.6 62.2997 334.8C62.5997 331.3 61.2997 328 60.7997 324.6Z" fill="white"/>
<path d="M631.499 312.7C631.499 307.1 631.599 307.1 625.999 307.1C623.999 307.1 621.399 306.2 619.999 307.5C618.699 308.7 619.599 311.3 619.199 313.8C616.999 310.9 614.599 308.9 611.599 307.6C606.599 305.4 601.399 305.6 596.299 306.7C591.299 307.8 586.899 310.1 583.499 314.1C579.999 318.2 578.199 322.9 577.799 328.2C576.999 338.6 578.999 347.9 588.499 354.1C594.999 358.3 606.799 359.6 614.199 354.5C616.099 353.2 617.399 351.3 619.199 349.5C619.399 351.4 619.699 353.1 619.699 354.7C619.699 356 620.099 356.5 621.499 356.4C623.999 356.3 626.499 356.2 628.899 356.4C630.899 356.6 631.399 355.9 631.399 353.9C631.399 340.4 631.499 326.6 631.499 312.7ZM604.299 347.2C595.799 347.2 588.899 340.3 588.899 331.8C588.899 323.3 595.799 316.4 604.299 316.4C612.799 316.4 619.699 323.3 619.699 331.8C619.699 340.3 612.799 347.2 604.299 347.2Z" fill="white"/>
<path d="M807.899 350.1C796.799 358.9 784.799 360.2 772.199 354.6C765.499 351.6 761.599 345.7 760.099 338.6C758.699 332.2 758.999 325.8 761.899 319.7C764.299 314.7 767.899 310.9 772.899 308.6C781.499 304.7 790.299 304.7 798.899 308.7C803.999 311 807.299 315.2 809.199 320.4C810.799 324.9 811.099 329.6 810.999 334.3C810.999 336 810.399 336.4 808.799 336.4C797.299 336.3 785.799 336.4 774.299 336.3C772.599 336.3 771.899 336.4 772.599 338.4C774.099 342.5 777.099 344.9 780.899 345.9C787.199 347.6 793.299 347 798.799 343.2C799.799 342.5 800.499 342.4 801.399 343.3C803.399 345.6 805.599 347.8 807.899 350.1ZM785.499 326.2C789.499 326.2 793.499 326.2 797.499 326.2C798.099 326.2 799.199 326.5 798.799 325.2C798.299 323.7 797.999 322.2 796.899 320.9C794.199 317.7 790.599 316.8 786.699 316.6C780.399 316.3 775.199 319.4 772.899 324.5C772.199 326 772.599 326.3 774.099 326.2C777.799 326.1 781.599 326.2 785.499 326.2Z" fill="white"/>
<path d="M551.199 336.3C545.399 336.3 539.499 336.3 533.699 336.3C532.099 336.3 531.799 336.6 532.299 338.2C533.699 342.7 536.999 345 541.099 346.1C547.299 347.7 553.299 346.9 558.699 343.2C559.599 342.6 560.099 342.5 560.899 343.3C562.799 345.2 564.699 347.2 566.699 349C567.599 349.8 567.499 350.2 566.599 351C559.799 356.6 551.999 358.5 543.299 357.8C537.799 357.3 532.899 355.8 528.399 352.5C523.699 349 520.999 344.3 519.799 338.8C518.499 332.8 518.699 326.8 521.099 320.9C524.399 312.9 530.499 308.4 538.699 306.5C545.599 305 552.399 305.5 558.799 308.7C563.799 311.2 567.099 315.3 568.999 320.6C570.599 325.1 570.699 329.8 570.599 334.5C570.599 336.1 569.999 336.3 568.699 336.3C562.899 336.3 556.999 336.3 551.199 336.3ZM545.099 326.2C549.099 326.2 553.099 326.2 557.099 326.2C558.599 326.2 558.799 325.8 558.399 324.4C557.399 321 555.199 318.8 551.999 317.6C545.199 315.1 535.699 316.9 532.699 324.6C532.199 325.8 532.199 326.3 533.699 326.2C537.399 326.1 541.199 326.2 545.099 326.2Z" fill="white"/>
<path d="M843.099 305.9C848.599 306.1 853.899 307.7 858.499 311.3C859.399 312 859.599 312.4 858.799 313.3C857.199 315.1 855.599 316.9 854.199 318.8C853.199 320.1 852.499 320 851.399 319.1C846.499 315.5 841.099 315.2 835.399 316.6C833.299 317.1 831.699 318.3 831.599 320.6C831.499 323 832.999 324.3 835.199 325.1C838.499 326.3 841.899 326.2 845.299 326.8C850.199 327.6 854.999 328.7 858.499 332.7C861.299 335.7 861.999 339.5 861.799 343.2C861.399 351.4 853.999 356.5 846.599 357.5C841.099 358.3 835.699 358.4 830.199 357C825.599 355.8 821.799 353.2 818.299 350.1C817.599 349.5 817.799 349.1 818.199 348.5C819.799 346.3 821.299 344.1 822.799 341.8C823.399 340.8 823.999 341 824.699 341.6C829.099 345.3 834.199 347 839.799 347.5C842.799 347.8 845.699 347.3 847.999 345.1C850.699 342.5 849.899 338.8 846.399 337.6C842.899 336.4 839.199 336.4 835.499 335.8C830.099 334.9 825.399 333 821.799 328.7C819.999 326.5 819.399 323.6 819.399 321.1C819.499 315.8 822.099 311.4 826.799 308.9C831.699 306.5 837.699 305.5 843.099 305.9Z" fill="white"/>
<path d="M755.3 307.1C753 312.5 750.8 317.7 748.6 322.8C744 333.5 739.5 344.2 734.9 355C734.3 356.3 733.7 357 732.1 356.9C728.8 356.8 725.5 356.8 722.3 356.9C721.2 356.9 720.6 356.6 720.1 355.6C713.3 339.7 706.6 323.9 699.8 308C699.7 307.8 699.7 307.5 699.6 307.1C703.7 307.1 707.8 307.1 711.8 307.1C713.2 307.1 713.2 308.2 713.5 309C718.2 319.6 722.2 330.4 726.2 341.3C726.5 342.1 726.8 342.9 727.3 344.2C729.7 337.8 731.7 332 733.9 326.2C736.2 320.2 738.7 314.4 741.1 308.4C741.5 307.4 742 306.9 743.2 307C747.2 307.2 751.1 307.1 755.3 307.1Z" fill="white"/>
<path d="M451.2 358C445.9 357.7 441 356.4 436.6 353.4C431.7 350.1 428.6 345.5 427.3 340C425.8 333.6 425.9 327.1 428.4 320.8C431.6 312.8 437.7 308.4 445.8 306.7C452.7 305.2 459.6 305.6 465.9 309.4C470.9 312.4 471 312.7 467.1 316.8C465.8 318.1 464.8 319.9 463.2 320.6C461.4 321.4 460.2 319.1 458.5 318.5C452.8 316.3 447.5 317.3 443.1 321.1C439.3 324.4 438.3 329 438.7 334.1C439.8 346.6 455.1 349.4 462.3 343.3C463.1 342.6 463.7 342.4 464.5 343.3C466.6 345.4 468.7 347.5 470.9 349.5C471.7 350.3 471.5 350.6 470.7 351.3C465.2 356.3 458.6 358.4 451.2 358Z" fill="white"/>
<path d="M657.199 329.5C657.199 332.5 657.099 335.6 657.199 338.6C657.399 344.9 661.099 347.6 667.099 345.6C669.399 344.8 670.099 345.4 670.599 347.5C671.099 349.5 671.799 351.5 672.499 353.4C672.899 354.6 672.899 355.3 671.499 355.7C664.799 357.7 658.399 358 652.099 354.3C648.599 352.2 646.799 348.9 645.899 345.1C644.099 336.9 645.099 328.5 644.999 320.3C644.999 318.3 644.599 317.4 642.399 317.6C640.299 317.8 637.399 318.4 636.199 317.3C634.799 316 635.799 313.1 635.799 310.9C635.699 307.2 635.799 307.2 639.399 307.2C644.999 307.2 644.999 307.2 644.999 301.5C644.999 300.1 645.099 298.6 644.999 297.2C644.699 295.1 645.499 294.2 647.699 294.2C650.399 294.1 653.099 293.7 655.799 293.4C656.999 293.2 657.499 293.5 657.499 294.9C657.399 298.3 657.599 301.6 657.399 305C657.299 307.1 657.999 307.5 659.899 307.4C663.099 307.2 666.299 307.4 669.499 307.3C670.799 307.3 671.199 307.7 671.199 308.9C671.099 311.3 671.099 313.7 671.199 316.1C671.299 317.5 670.799 317.9 669.399 317.8C665.999 317.7 662.499 317.8 659.099 317.7C657.699 317.7 657.299 318.1 657.299 319.5C657.199 322.8 657.199 326.2 657.199 329.5Z" fill="white"/>
<path d="M489.7 313C492.2 309.5 495 307.2 498.8 306.5C504.6 305.4 510 306.1 515 309.5C516.1 310.3 516.5 310.9 515.7 312.2C514.3 314.7 513 317.3 511.7 319.8C511.2 320.9 510.8 321.2 509.6 320.4C504.9 317.3 498.4 317.3 493.9 320.7C490.2 323.5 489.6 327.8 489.5 332.1C489.4 339.5 489.4 346.9 489.5 354.4C489.5 356.2 489.1 356.9 487.2 356.8C484.5 356.6 481.8 356.7 479.1 356.8C477.8 356.8 477.3 356.5 477.3 355.1C477.3 339.7 477.3 324.3 477.3 308.9C477.3 307.7 477.6 307.2 478.9 307.3C481.5 307.4 484.2 307.4 486.8 307.3C488.4 307.2 488.9 307.8 489 309.3C489 310.2 489.4 311.2 489.7 313Z" fill="white"/>
<path d="M692.5 332C692.5 339.5 692.4 347 692.5 354.5C692.5 356.2 692.1 356.7 690.4 356.6C687.6 356.5 684.8 356.5 682 356.6C680.9 356.6 680.3 356.5 680.3 355.1C680.3 339.5 680.3 323.9 680.3 308.4C680.3 307.4 680.6 307 681.7 307C684.7 307.1 687.8 307.1 690.8 307C692.5 306.9 692.6 307.7 692.5 309C692.5 316.7 692.5 324.3 692.5 332Z" fill="white"/>
<path d="M686.299 286.1C689.299 286 693.399 289.9 693.499 293.1C693.599 296.1 689.599 300.1 686.499 300.3C683.499 300.4 679.399 296.6 679.299 293.3C679.099 290.3 683.099 286.3 686.299 286.1Z" fill="white"/>
<path d="M179.899 398.8C173.099 397.7 166.399 396.6 160.399 392.6C152.399 387.3 146.999 380 142.399 371.9C141.799 370.8 141.599 369.6 142.699 368.6C143.799 367.7 144.999 368 145.999 368.8C147.399 369.9 148.699 371 150.099 372.1C157.299 377.9 165.399 382 174.399 383.6C182.599 385.1 190.699 383.4 198.499 380.5C215.599 374.2 230.799 364.4 245.499 353.8C249.699 350.8 253.799 347.5 257.899 344.4C258.299 344.1 258.799 343.8 259.299 343.4C260.599 342.4 261.999 342 263.099 343.3C264.399 344.8 263.499 346.1 262.299 347.2C261.199 348.2 260.099 349.3 258.999 350.3C242.999 365.2 225.699 378.3 207.099 389.6C200.099 393.9 192.499 397 184.299 398.2C182.799 398.6 181.399 398.4 179.899 398.8Z" fill="white"/>
<path d="M1088.9 42.6C1088.9 37.7 1088.9 32.9 1088.9 28C1088.9 27.2 1088.6 26.1 1090.1 26.2C1096.8 26.5 1103.7 25.2 1110.3 27.7C1114.7 29.3 1118 35.2 1116.6 39.9C1115.8 42.6 1114.4 44.8 1111.6 45.8C1109.5 46.5 1109.7 47.5 1111.1 49C1113.1 51.2 1115 53.7 1116.9 56C1117.5 56.7 1118.1 57.4 1117.7 58.4C1117.3 59.4 1116.3 58.7 1115.6 58.9C1110.4 59.9 1106.6 58.1 1104.1 53.3C1103.5 52 1102.3 51.1 1101.5 49.8C1100.7 48.5 1099.4 48.6 1098.3 48.8C1097 49 1097.6 50.2 1097.6 51C1097.5 53.1 1097.5 55.2 1097.6 57.2C1097.6 58.4 1097.3 58.9 1096 58.9C1094.2 58.8 1092.5 58.8 1090.7 58.9C1089.2 59 1088.8 58.5 1088.8 57C1088.9 52.1 1088.9 47.4 1088.9 42.6ZM1101.7 41.3C1102.9 41.2 1104.2 41.4 1105.6 41C1107.4 40.4 1108.3 39.2 1108.3 37.5C1108.3 36 1107.5 34.7 1105.7 34.2C1103.2 33.5 1100.8 33.9 1098.3 33.8C1097.6 33.8 1097.6 34.3 1097.6 34.8C1097.6 35.7 1097.6 36.6 1097.6 37.4C1097.6 41.3 1097.6 41.3 1101.7 41.3Z" fill="white"/>
<path d="M613.6 58C628.511 58 640.6 45.9117 640.6 31C640.6 16.0883 628.511 4 613.6 4C598.688 4 586.6 16.0883 586.6 31C586.6 45.9117 598.688 58 613.6 58Z" fill="white"/>
</svg>
