<svg width="311" height="452" viewBox="0 0 311 452" fill="none" xmlns="http://www.w3.org/2000/svg">
<path d="M310.712 444.779C310.814 444.779 310.898 444.779 311 444.779V437.586C308.718 437.439 306.578 436.43 305.015 434.763C303.451 433.096 302.58 430.896 302.58 428.611C302.58 426.326 303.451 424.126 305.015 422.459C306.578 420.792 308.718 419.783 311 419.636V412.211C308.718 412.064 306.578 411.055 305.015 409.388C303.451 407.721 302.58 405.521 302.58 403.236C302.58 400.951 303.451 398.751 305.015 397.084C306.578 395.417 308.718 394.408 311 394.261V386.836C308.729 386.673 306.604 385.656 305.053 383.99C303.502 382.324 302.64 380.132 302.64 377.856C302.64 375.58 303.502 373.389 305.053 371.723C306.604 370.057 308.729 369.04 311 368.877V361.452C308.729 361.288 306.604 360.271 305.053 358.605C303.502 356.939 302.64 354.748 302.64 352.472C302.64 350.196 303.502 348.004 305.053 346.338C306.604 344.672 308.729 343.655 311 343.492V336.902C308.743 336.724 306.636 335.703 305.1 334.041C303.563 332.379 302.71 330.199 302.71 327.937C302.71 325.674 303.563 323.494 305.1 321.832C306.636 320.171 308.743 319.149 311 318.971V311.481C308.743 311.303 306.636 310.281 305.1 308.619C303.563 306.958 302.71 304.778 302.71 302.515C302.71 300.252 303.563 298.073 305.1 296.411C306.636 294.749 308.743 293.727 311 293.549V286.069C308.743 285.891 306.636 284.869 305.1 283.207C303.563 281.545 302.71 279.366 302.71 277.103C302.71 274.84 303.563 272.66 305.1 270.999C306.636 269.337 308.743 268.315 311 268.137V260.647C308.734 260.484 306.614 259.469 305.066 257.807C303.518 256.144 302.657 253.957 302.657 251.686C302.657 249.415 303.518 247.228 305.066 245.566C306.614 243.903 308.734 242.888 311 242.725V235.235C308.743 235.057 306.636 234.035 305.1 232.373C303.563 230.712 302.71 228.532 302.71 226.269C302.71 224.006 303.563 221.827 305.1 220.165C306.636 218.503 308.743 217.481 311 217.303V209.758C308.731 209.594 306.609 208.579 305.059 206.914C303.51 205.25 302.648 203.061 302.648 200.787C302.648 198.514 303.51 196.325 305.059 194.66C306.609 192.996 308.731 191.98 311 191.817V184.336C308.743 184.158 306.636 183.137 305.1 181.475C303.563 179.813 302.71 177.633 302.71 175.37C302.71 173.108 303.563 170.928 305.1 169.266C306.636 167.604 308.743 166.583 311 166.405V158.915C308.743 158.737 306.636 157.715 305.1 156.053C303.563 154.391 302.71 152.212 302.71 149.949C302.71 147.686 303.563 145.506 305.1 143.845C306.636 142.183 308.743 141.161 311 140.983V133.502C308.743 133.324 306.636 132.303 305.1 130.641C303.563 128.979 302.71 126.799 302.71 124.537C302.71 122.274 303.563 120.094 305.1 118.432C306.636 116.771 308.743 115.749 311 115.571V108.081C308.743 107.903 306.636 106.881 305.1 105.219C303.563 103.558 302.71 101.378 302.71 99.1152C302.71 96.8523 303.563 94.6726 305.1 93.0108C306.636 91.3491 308.743 90.3273 311 90.1494V82.6687C308.743 82.4907 306.636 81.469 305.1 79.8072C303.563 78.1454 302.71 75.9658 302.71 73.7029C302.71 71.4401 303.563 69.2604 305.1 67.5986C306.636 65.9368 308.743 64.9151 311 64.7372V57.2564C308.743 57.0785 306.636 56.0568 305.1 54.395C303.563 52.7332 302.71 50.5535 302.71 48.2907C302.71 46.0278 303.563 43.8482 305.1 42.1864C306.636 40.5246 308.743 39.5028 311 39.3249V31.8349C308.729 31.6921 306.6 30.6813 305.055 29.0121C303.509 27.3429 302.666 25.1433 302.699 22.8692C302.671 20.5982 303.516 18.4033 305.061 16.738C306.606 15.0728 308.732 14.0646 311 13.922V7.18374C310.898 7.18374 310.814 7.18374 310.712 7.18374C308.721 7.1149 306.815 6.36321 305.314 5.055C303.812 3.74678 302.807 1.96179 302.467 0L295.039 0C294.175 4.1209 290.823 7.21158 286.793 7.21158C284.8 7.13941 282.893 6.3828 281.393 5.06923C279.893 3.75565 278.891 1.96537 278.557 0L271.129 0C270.266 4.1209 266.914 7.21158 262.884 7.21158C260.896 7.13315 258.995 6.37372 257.5 5.06068C256.006 3.74764 255.009 1.96085 254.676 0L247.247 0C246.393 4.1209 243.032 7.21158 239.011 7.21158C237.02 7.13732 235.115 6.37977 233.617 5.06637C232.118 3.75297 231.118 1.96387 230.785 0L223.357 0C223.022 1.96688 222.02 3.75832 220.517 5.07208C219.015 6.38584 217.106 7.1415 215.111 7.21158C211.091 7.21158 207.73 4.1209 206.875 0H199.447C198.584 4.1209 195.222 7.21158 191.202 7.21158C189.214 7.13315 187.313 6.37372 185.818 5.06068C184.324 3.74764 183.327 1.96085 182.994 0L175.565 0C174.702 4.1209 171.35 7.21158 167.32 7.21158C163.29 7.21158 159.957 4.1209 159.103 0H151.674C150.811 4.1209 147.459 7.21158 143.429 7.21158C139.399 7.21158 136.001 4.1209 135.184 0H127.756C126.901 4.1209 123.549 7.21158 119.52 7.21158C117.531 7.13486 115.629 6.37603 114.134 5.06269C112.64 3.74935 111.643 1.96159 111.312 0L103.883 0C103.549 1.96688 102.546 3.75832 101.044 5.07208C99.5421 6.38584 97.6327 7.1415 95.638 7.21158C91.6082 7.21158 88.2098 4.1209 87.402 0H79.9738C79.1103 4.1209 75.749 7.21158 71.7285 7.21158C69.7403 7.13315 67.8396 6.37372 66.3451 5.06068C64.8506 3.74764 63.8533 1.96085 63.5204 0L56.0922 0C55.7579 1.96688 54.7551 3.75832 53.2531 5.07208C51.751 6.38584 49.8415 7.1415 47.8469 7.21158C45.856 7.13867 43.9513 6.38138 42.4542 5.06756C40.9571 3.75374 39.9594 1.96384 39.6294 0H32.2012C31.3377 4.1209 27.9857 7.21158 23.9559 7.21158C21.9645 7.13732 20.0594 6.37977 18.5611 5.06637C17.0628 3.75297 16.0628 1.96387 15.7292 0L8.8117 0C8.36002 1.78191 7.36748 3.38032 5.97041 4.57569C5.2233 5.3986 4.3136 6.05771 3.29876 6.5114C2.28391 6.96509 1.18597 7.2035 0.074282 7.21158H0V14.1447C0.148564 14.1447 0.278557 14.1447 0.427121 14.1447C1.59044 14.1641 2.73854 14.4123 3.80587 14.8752C4.87319 15.3382 5.83883 16.0067 6.64762 16.8428C7.45641 17.6788 8.09251 18.6659 8.51959 19.7477C8.94666 20.8295 9.15635 21.9848 9.13668 23.1476C9.16403 25.4889 8.26345 27.746 6.6316 29.4258C4.99976 31.1056 2.76923 32.0718 0.427121 32.1133C0.278557 32.1133 0.148564 32.1133 0 32.1133V39.5941C0.148564 39.5941 0.278557 39.5941 0.427121 39.5941C1.59044 39.6134 2.73854 39.8616 3.80587 40.3246C4.87319 40.7875 5.83883 41.4561 6.64762 42.2921C7.45641 43.1281 8.09251 44.1152 8.51959 45.197C8.94666 46.2788 9.15635 47.4341 9.13668 48.597C9.15909 50.9351 8.25632 53.1874 6.625 54.8632C4.99368 56.539 2.76598 57.5026 0.427121 57.5441C0.278557 57.5441 0.148564 57.4977 0 57.4977V64.9692C0.148564 64.9692 0.278557 64.9692 0.427121 64.9692C1.59044 64.9885 2.73854 65.2368 3.80587 65.6997C4.87319 66.1626 5.83883 66.8312 6.64762 67.6672C7.45641 68.5033 8.09251 69.4904 8.51959 70.5722C8.94666 71.654 9.15635 72.8092 9.13668 73.9721C9.1665 76.315 8.26702 78.5744 6.63491 80.2563C5.0028 81.9381 2.77086 82.9056 0.427121 82.9471C0.278557 82.9471 0.148564 82.9471 0 82.9007V90.3907C0.148564 90.3907 0.278557 90.3907 0.427121 90.3907C1.59123 90.41 2.74011 90.6586 3.80805 91.1221C4.87599 91.5856 5.84204 92.255 6.65095 93.092C7.45986 93.929 8.09576 94.9172 8.52229 96.0001C8.94881 97.083 9.15759 98.2393 9.13668 99.4029C9.17643 101.752 8.28135 104.021 6.64818 105.711C5.01501 107.401 2.77739 108.374 0.427121 108.415C0.278557 108.415 0.148564 108.369 0 108.359V115.849C0.148564 115.849 0.278557 115.849 0.427121 115.849C1.59044 115.869 2.73854 116.117 3.80587 116.58C4.87319 117.043 5.83883 117.711 6.64762 118.547C7.45641 119.383 8.09251 120.371 8.51959 121.452C8.94666 122.534 9.15635 123.689 9.13668 124.852C9.15635 126.015 8.94666 127.17 8.51959 128.252C8.09251 129.334 7.45641 130.321 6.64762 131.157C5.83883 131.993 4.87319 132.662 3.80587 133.125C2.73854 133.588 1.59044 133.836 0.427121 133.855C0.278557 133.855 0.148564 133.855 0 133.855V141.336C0.148564 141.336 0.278557 141.336 0.427121 141.336C2.77575 141.377 5.01195 142.349 6.64486 144.037C8.27776 145.724 9.17394 147.991 9.13668 150.339C9.15759 151.502 8.94881 152.659 8.52229 153.741C8.09576 154.824 7.45986 155.813 6.65095 156.65C5.84204 157.487 4.87599 158.156 3.80805 158.62C2.74011 159.083 1.59123 159.332 0.427121 159.351C0.278557 159.351 0.148564 159.351 0 159.351V166.841C0.148564 166.841 0.278557 166.794 0.427121 166.794C2.74509 166.9 4.93324 167.894 6.53633 169.571C8.13941 171.248 9.03402 173.478 9.03402 175.797C9.03402 178.117 8.13941 180.347 6.53633 182.024C4.93324 183.701 2.74509 184.695 0.427121 184.8C0.278557 184.8 0.148564 184.8 0 184.8V192.29C0.148564 192.29 0.278557 192.29 0.427121 192.29C2.74509 192.395 4.93324 193.39 6.53633 195.067C8.13941 196.744 9.03402 198.974 9.03402 201.293C9.03402 203.613 8.13941 205.843 6.53633 207.519C4.93324 209.196 2.74509 210.191 0.427121 210.296C0.278557 210.296 0.148564 210.296 0 210.296V217.795C0.148564 217.795 0.278557 217.795 0.427121 217.795C2.74509 217.901 4.93324 218.895 6.53633 220.572C8.13941 222.249 9.03402 224.479 9.03402 226.798C9.03402 229.118 8.13941 231.348 6.53633 233.025C4.93324 234.701 2.74509 235.696 0.427121 235.801C0.278557 235.801 0.148564 235.801 0 235.801V243.291C0.148564 243.291 0.278557 243.245 0.427121 243.245C2.74752 243.35 4.93797 244.345 6.54275 246.024C8.14754 247.703 9.04309 249.935 9.04309 252.257C9.04309 254.579 8.14754 256.811 6.54275 258.49C4.93797 260.168 2.74752 261.164 0.427121 261.269C0.278557 261.269 0.148564 261.223 0 261.223V268.703C0.148564 268.703 0.278557 268.657 0.427121 268.657C2.77739 268.698 5.01501 269.671 6.64818 271.361C8.28135 273.051 9.17643 275.32 9.13668 277.669C9.15635 278.832 8.94666 279.987 8.51959 281.069C8.09251 282.151 7.45641 283.138 6.64762 283.974C5.83883 284.81 4.87319 285.479 3.80587 285.941C2.73854 286.404 1.59044 286.653 0.427121 286.672C0.278557 286.672 0.148564 286.672 0 286.672V294.162C0.148564 294.162 0.278557 294.116 0.427121 294.116C2.77575 294.157 5.01195 295.128 6.64486 296.816C8.27776 298.504 9.17394 300.771 9.13668 303.118C9.15759 304.282 8.94881 305.438 8.52229 306.521C8.09576 307.604 7.45986 308.592 6.65095 309.429C5.84204 310.266 4.87599 310.936 3.80805 311.399C2.74011 311.863 1.59123 312.111 0.427121 312.131C0.278557 312.131 0.148564 312.131 0 312.084V319.583C0.148564 319.583 0.278557 319.537 0.427121 319.537C2.74509 319.642 4.93324 320.637 6.53633 322.314C8.13941 323.991 9.03402 326.221 9.03402 328.54C9.03402 330.859 8.13941 333.089 6.53633 334.766C4.93324 336.443 2.74509 337.438 0.427121 337.543C0.278557 337.543 0.148564 337.543 0 337.543V344.142C0.111423 344.142 0.213561 344.142 0.324984 344.142C2.59567 344.181 4.76484 345.089 6.38532 346.68C8.00579 348.27 8.95402 350.421 9.03454 352.69C9.05422 353.853 8.84453 355.008 8.41745 356.09C7.99037 357.172 7.35427 358.159 6.54548 358.995C5.73669 359.831 4.77106 360.499 3.70373 360.962C2.63641 361.425 1.4883 361.673 0.324984 361.693C0.213561 361.693 0.111423 361.693 0 361.693V369.164C0.111423 369.164 0.213561 369.164 0.324984 369.164C2.4793 369.468 4.45151 370.539 5.87857 372.18C7.30563 373.821 8.09149 375.923 8.09149 378.098C8.09149 380.272 7.30563 382.374 5.87857 384.015C4.45151 385.657 2.4793 386.728 0.324984 387.031C0.213561 387.031 0.111423 387.031 0 386.984V394.456C0.111423 394.456 0.213561 394.456 0.324984 394.456C2.67525 394.497 4.91287 395.47 6.54604 397.16C8.17922 398.85 9.07429 401.119 9.03454 403.468C9.05422 404.631 8.84453 405.786 8.41745 406.868C7.99037 407.95 7.35427 408.937 6.54548 409.773C5.73669 410.609 4.77106 411.277 3.70373 411.74C2.63641 412.203 1.4883 412.452 0.324984 412.471C0.213561 412.471 0.111423 412.471 0 412.471V419.942C0.111423 419.942 0.213561 419.942 0.324984 419.942C2.67525 419.984 4.91287 420.956 6.54604 422.646C8.17922 424.336 9.07429 426.605 9.03454 428.954C9.05422 430.117 8.84453 431.273 8.41745 432.354C7.99037 433.436 7.35427 434.423 6.54548 435.259C5.73669 436.095 4.77106 436.764 3.70373 437.227C2.63641 437.69 1.4883 437.938 0.324984 437.957C0.213561 437.957 0.111423 437.957 0 437.957V444.891H0.074282C1.2573 444.904 2.42308 445.176 3.48979 445.687C4.5565 446.199 5.49826 446.937 6.24897 447.851C7.43213 448.984 8.28298 450.419 8.70956 452H15.7292C16.0616 450.031 17.0635 448.238 18.5657 446.922C20.068 445.607 21.9785 444.85 23.9745 444.779C25.9705 444.85 27.881 445.607 29.3833 446.922C30.8855 448.238 31.8875 450.031 32.2198 452H39.648C39.9767 450.031 40.9763 448.237 42.4774 446.921C43.9784 445.605 45.8886 444.848 47.884 444.779C49.8768 444.854 51.7829 445.613 53.2814 446.928C54.7798 448.243 55.7791 450.034 56.1107 452H63.5389C63.8713 450.031 64.8732 448.238 66.3755 446.922C67.8777 445.607 69.7882 444.85 71.7842 444.779C75.8047 444.779 79.166 447.87 80.0295 452H87.4577C88.312 447.87 91.6639 444.779 95.6937 444.779C97.6833 444.858 99.585 445.619 101.08 446.934C102.574 448.249 103.571 450.037 103.902 452H111.33C112.184 447.87 115.536 444.779 119.575 444.779C123.614 444.779 127.004 447.87 127.811 452H135.24C136.103 447.87 139.455 444.779 143.485 444.779C147.515 444.779 150.867 447.87 151.73 452H159.158C160.013 447.87 163.374 444.779 167.394 444.779C169.381 444.862 171.278 445.625 172.769 446.939C174.26 448.254 175.254 450.04 175.584 452H183.012C183.345 450.031 184.346 448.238 185.849 446.922C187.351 445.607 189.261 444.85 191.257 444.779C195.278 444.779 198.686 447.87 199.503 452H206.931C207.785 447.87 211.146 444.779 215.167 444.779C217.163 444.85 219.074 445.607 220.576 446.922C222.078 448.238 223.08 450.031 223.412 452H230.84C231.173 450.031 232.175 448.238 233.677 446.922C235.179 445.607 237.09 444.85 239.086 444.779C243.106 444.779 246.468 447.87 247.322 452H254.75C255.082 450.031 256.084 448.238 257.587 446.922C259.089 445.607 260.999 444.85 262.995 444.779C267.025 444.779 270.377 447.87 271.241 452H278.669C279.001 450.031 280.003 448.238 281.505 446.922C283.008 445.607 284.918 444.85 286.914 444.779C290.944 444.779 294.342 447.87 295.159 452H302.588C302.915 450.051 303.9 448.272 305.377 446.959C306.855 445.646 308.737 444.877 310.712 444.779Z" fill="white"/>
</svg>
