<svg width="270" height="415" viewBox="0 0 270 415" fill="none" xmlns="http://www.w3.org/2000/svg">
<g opacity="0.23" clip-path="url(#clip0_33_18300)">
<path d="M120.603 406.909H122.205C122.17 406.693 122.062 406.496 121.899 406.35C121.286 405.698 120.956 406.303 120.603 406.909Z" fill="#0D0DFF"/>
<path d="M7.06994 395.704C7.1146 395.756 7.1712 395.796 7.23489 395.821C7.28592 395.85 7.34228 395.869 7.40073 395.877C7.45918 395.884 7.51857 395.88 7.57549 395.865C7.63242 395.85 7.68576 395.824 7.73245 395.788C7.77914 395.753 7.81826 395.708 7.84757 395.658V385.199C7.84757 384.64 7.30559 384.034 7.84757 383.499V327.594L7.06994 327.221L6.8343 327.105L7.11707 326.941L7.72975 326.545V324.426C7.49504 324.557 7.28725 324.731 7.11707 324.938C6.86272 325.218 6.64863 325.532 6.48084 325.87C6.29232 326.266 6.12737 326.662 5.93886 326.988V328.758C6.09854 328.625 6.29609 328.544 6.5044 328.525C6.66749 328.491 6.83616 328.491 6.99925 328.525H7.06994C7.51767 328.689 7.61192 329.154 7.30559 329.76H7.06994C6.8594 329.724 6.64426 329.724 6.43371 329.76C6.32714 329.81 6.23229 329.881 6.1552 329.97C6.07811 330.058 6.02048 330.161 5.98599 330.272H5.86816V384.36C6.22163 384.36 6.45727 384.733 6.29232 385.548L5.98599 386.038L5.86816 386.527V395.052C6.06994 395.08 6.26301 395.152 6.43371 395.262C6.6768 395.36 6.89429 395.511 7.06994 395.704Z" fill="#0D0DFF"/>
<path d="M89.7803 12.64L89.5918 12.8735H89.7803H89.9688L89.8981 12.4766L89.7803 12.64Z" fill="#0D0DFF"/>
<path d="M61.7393 12.2441C61.7546 12.4535 61.7546 12.6637 61.7393 12.8731H61.9749L61.8571 12.4771L61.7393 12.2441Z" fill="#0D0DFF"/>
<path d="M49.9805 12.6396V12.9665H50.3104C50.269 12.8668 50.1941 12.7843 50.0983 12.733L49.9805 12.6396Z" fill="#0D0DFF"/>
<path d="M7.1875 91.0228C7.23422 91.4592 7.42464 91.8684 7.72948 92.1875V90.4404L7.1875 91.0228Z" fill="#0D0DFF"/>
<path d="M7.06969 301.085C7.28091 300.691 7.38638 300.25 7.37603 299.804H7.68236V220.605C7.52177 220.422 7.42292 220.194 7.39959 219.953C7.39959 219.674 7.61167 219.394 7.72949 219.115V207.468C7.52952 207.526 7.31679 207.526 7.11682 207.468H6.48058H5.91504V225.381C5.9988 225.708 6.0462 226.044 6.05642 226.382H5.91504V228.945L6.19781 229.108L5.91504 229.457V302.692L6.48058 302.18C6.74905 301.858 6.94937 301.485 7.06969 301.085Z" fill="#0D0DFF"/>
<path d="M263.403 108.587C263.273 108.913 263.209 109.261 263.214 109.612L262.319 109.495V111.825C262.42 111.807 262.524 111.807 262.625 111.825C262.665 112.026 262.658 112.233 262.605 112.43C262.552 112.628 262.454 112.811 262.319 112.966V168.522C262.401 168.705 262.443 168.903 262.443 169.104C262.443 169.304 262.401 169.503 262.319 169.686V188.973C262.672 188.694 262.979 188.973 263.167 189.323C263.173 189.439 263.173 189.556 263.167 189.672V189.882L262.908 190.511H262.225V203.369C262.413 202.437 262.719 202.111 263.12 202.041H263.497H264.063V107.655C263.836 107.846 263.645 108.075 263.497 108.331L263.403 108.587Z" fill="#0D0DFF"/>
<path d="M7.06994 323.89C7.27344 323.866 7.47912 323.866 7.68262 323.89V316.902V305.255C7.52348 305.037 7.31321 304.862 7.06994 304.742L6.43371 304.626H5.86816V324.286C6.05929 324.25 6.24814 324.204 6.43371 324.146L7.06994 323.89Z" fill="#0D0DFF"/>
<path d="M263.544 13.5947H263.403H263.167C262.719 13.7811 262.413 14.806 262.225 15.5281V23.6809H262.602C262.602 23.8672 262.814 24.0536 262.908 24.2399C263.002 24.4263 263.144 25.0086 263.167 25.3813C263.159 25.4996 263.125 25.6147 263.068 25.7191C263.011 25.8235 262.932 25.9148 262.837 25.987L262.39 26.2432H262.225V81.5657L263.167 82.0315L263.403 82.148H263.544L263.803 82.2878L263.544 82.4275H263.403L263.167 82.5906C262.743 82.8701 262.531 83.0332 262.39 82.94H262.225V85.2693C262.565 85.1841 262.885 85.0338 263.167 84.8268L263.403 84.6171L263.544 84.4774C263.754 84.2206 263.943 83.948 264.11 83.6621V80.9134H263.662H263.521C263.412 80.8503 263.328 80.7514 263.285 80.6339C263.215 80.446 263.215 80.2394 263.285 80.0516C263.279 79.9507 263.279 79.8496 263.285 79.7487H263.544C263.731 79.7829 263.923 79.7829 264.11 79.7487V14.0606C263.957 13.9667 263.815 13.8574 263.686 13.7345L263.544 13.5947Z" fill="#0D0DFF"/>
<path d="M7.07003 205.977C7.27153 205.931 7.48121 205.931 7.68271 205.977V127.478C7.44498 127.148 7.23981 126.797 7.07003 126.429L6.81083 126.057L7.07003 126.173L7.68271 126.476V95.5652C7.57486 95.589 7.46277 95.5866 7.35607 95.5582C7.24936 95.5298 7.15121 95.4762 7.07003 95.4021C6.90463 95.2731 6.77493 95.1048 6.693 94.913L7.07003 94.5635L7.68271 93.9346V93.1892C7.42295 93.0509 7.20993 92.8404 7.07003 92.5836C6.89266 92.321 6.69574 92.0719 6.48093 91.8382C6.48093 91.2559 6.48093 90.6269 6.0332 90.4639V94.6567C6.083 94.7695 6.12244 94.8864 6.15102 95.0061C6.15102 95.2158 6.15102 95.4254 6.0332 95.6118V96.9861C6.11207 97.3632 6.31011 97.7058 6.59875 97.9644C6.77263 98.1204 6.97177 98.2464 7.18785 98.3371C7.08363 98.723 6.88076 99.076 6.59875 99.362C6.43531 99.52 6.24352 99.6463 6.0332 99.7347V176.953L6.59875 177.279L6.97578 177.466H6.59875L6.0332 177.722V206.909C6.19158 206.668 6.38176 206.448 6.59875 206.257C6.73619 206.134 6.89621 206.04 7.07003 205.977ZM6.3631 123.727V124.286C5.774 124.24 6.26885 123.634 6.3631 123.727ZM6.52805 174.973C6.38548 174.944 6.24965 174.889 6.12746 174.81L6.45736 174.274L6.64588 174.554C6.64588 174.554 6.57518 175.043 6.52805 175.043V174.973ZM6.52805 128.06C6.4435 127.629 6.4435 127.186 6.52805 126.755C7.16429 127.105 7.07003 127.804 7.0936 128.433H7.07003C6.95352 128.438 6.83762 128.413 6.73414 128.36C6.63065 128.307 6.54328 128.227 6.48093 128.13L6.52805 128.06Z" fill="#0D0DFF"/>
<path d="M263.403 85.5496H263.167C262.855 85.605 262.536 85.605 262.225 85.5496V92.2815C262.39 92.2815 262.602 92.2815 262.861 92.6775C263.12 93.0735 262.531 93.3064 262.225 93.2598V101.296C262.225 101.296 262.413 101.576 262.46 101.948C262.154 103.626 262.46 104.278 263.167 104.557H263.403H263.544L264.11 104.674V85.3633L263.544 85.5263L263.403 85.5496Z" fill="#0D0DFF"/>
<path d="M7.06994 88.764C7.28869 88.8223 7.49585 88.9168 7.68262 89.0436V39.661L7.06994 39.3815L6.45727 39.1252L5.89173 38.8457V67.264L6.26876 67.4037C6.26876 66.6118 6.38658 66.0061 6.45727 65.4471L7.09351 67.0776L7.37628 67.8463L7.06994 68.1258L6.43371 68.6616L5.86816 69.1741V70.7347C6.01315 70.7798 6.13958 70.8698 6.22871 70.9915C6.31785 71.1132 6.36495 71.26 6.36301 71.4102L6.24519 71.7364C6.10888 71.8324 5.98258 71.9417 5.86816 72.0625V89.5094C5.96657 89.2052 6.1658 88.9426 6.43371 88.764C6.63776 88.6824 6.8659 88.6824 7.06994 88.764ZM6.43371 41.9438H5.86816L6.43371 41.3847L7.06994 40.9887V41.9205L6.43371 41.9438Z" fill="#0D0DFF"/>
<path d="M126.753 405.394C126.918 405.86 126.942 406.419 127.083 406.909H128.12C128.473 405.045 127.578 404.323 125.905 404.323V404.113H122.535V404.346C122.535 404.696 122.535 405.534 122.535 405.557C123.666 405.767 124.02 406.28 124.02 406.909H124.892C124.782 406.425 124.858 405.919 125.104 405.488L126.753 405.394Z" fill="#0D0DFF"/>
<path d="M160.968 405.162V405.021C160.959 405.107 160.959 405.193 160.968 405.278C160.971 405.239 160.971 405.2 160.968 405.162Z" fill="#0D0DFF"/>
<path d="M159.107 406.908H159.814C160.018 406.791 160.201 406.641 160.356 406.466L158.141 405.324C158.268 405.947 158.609 406.506 159.107 406.908Z" fill="#0D0DFF"/>
<path d="M160.403 406.443L160.804 406.303V406.14L160.403 406.443Z" fill="#0D0DFF"/>
<path d="M150.341 10.0781H148.455C148.246 11.0078 147.836 11.8818 147.254 12.6404L147.112 12.8035H148.455C148.595 12.5214 148.778 12.2621 148.997 12.0348C149.084 12.3171 149.228 12.5788 149.422 12.8035H248.651C248.631 12.6957 248.631 12.5852 248.651 12.4774L249.264 11.8019C249.264 11.1729 248.934 10.3344 249.546 10.148C249.632 10.1913 249.712 10.2462 249.782 10.3111V10.1946H158.258L158.423 10.4508L157.693 11.3593C157.433 10.6838 157.056 11.2195 156.727 11.3593L156.585 10.2878H154.417L153.357 11.336C152.838 9.4259 151.754 11.1263 151 10.7536C150.976 10.5993 150.976 10.4422 151 10.2878L150.341 10.0781Z" fill="#0D0DFF"/>
<path d="M263.403 318.439V318.23C263.354 318.003 263.275 317.783 263.167 317.577C263.079 317.402 262.945 317.254 262.779 317.148C262.614 317.041 262.422 316.98 262.225 316.972V319.627L263.167 318.719L263.403 318.439Z" fill="#0D0DFF"/>
<path d="M249.382 12.1746C249.369 12.2751 249.369 12.3769 249.382 12.4774H249.783C249.641 12.6404 249.524 12.8967 249.406 12.8035C249.329 12.7157 249.273 12.6123 249.241 12.5007C249.241 12.5007 249.052 12.7103 248.958 12.8501H260.387L260.929 12.4075C261.376 12.4075 261.871 12.4075 262.036 11.7553C262.334 11.1423 262.723 10.577 263.191 10.0781H256.287C255.179 12.7103 252.893 11.1263 250.914 11.6854C251.129 11.1713 251.272 10.6305 251.338 10.0781H250.702L250.018 10.4741C250.16 11.1496 250.278 11.8252 250.419 12.5007L249.783 12.6404C249.783 11.9649 249.783 11.8252 249.382 12.1746Z" fill="#0D0DFF"/>
<path d="M224.239 405.231V404.439C224.255 404.331 224.255 404.221 224.239 404.113H217.405L216.934 405.231L216.746 404.113H215.285C214.931 404.789 214.554 405.394 213.729 405.441C213.376 405.092 212.575 404.975 212.645 404.113H209.865C209.697 404.183 209.517 404.219 209.335 404.219C209.152 404.219 208.972 404.183 208.804 404.113H203.031C202.983 404.365 202.92 404.614 202.843 404.859C202.607 404.486 202.371 404.276 202.371 404.113H177.935C177.794 404.463 177.558 404.859 177.393 405.278C177.243 404.905 177.148 404.513 177.11 404.113H175.626C175.626 404.323 175.626 404.556 175.626 404.789L174.966 404.113H165.069C165.011 404.319 165.011 404.537 165.069 404.742C165.446 404.742 165.964 404.602 166.129 405.418C165.564 405.721 165.163 405.674 165.045 404.766C163.019 403.578 162.218 405.161 161.322 406.909H166.035L166.2 406C166.2 406.349 166.341 406.652 166.389 406.909H167.237C167.225 406.792 167.225 406.675 167.237 406.559C167.237 406.559 167.237 406.559 167.237 406.419L167.378 406.722L167.213 406.909H200.298V406.699L200.557 406.909H203.432C203.516 406.746 203.579 406.574 203.62 406.396V406.909H223.862C223.765 406.435 223.858 405.942 224.121 405.534C224.121 405.534 224.215 405.325 224.239 405.231ZM219.526 404.602C219.526 404.602 219.526 404.602 219.408 404.486H219.691L219.526 404.602Z" fill="#0D0DFF"/>
<path d="M13.1967 10.3114C13.0482 10.2411 12.9127 10.1463 12.7961 10.0312H12.3955C12.5178 10.1395 12.6522 10.2335 12.7961 10.3114H13.1967Z" fill="#0D0DFF"/>
<path d="M11.7825 12.0807C11.7825 12.3602 11.7825 12.6397 11.7825 12.8726H16.9666C17.0812 12.7547 17.229 12.6736 17.3908 12.6397V12.9425H24.3187C24.7062 12.3384 25.2107 11.8159 25.8032 11.4051C25.4733 12.0108 25.1906 12.5232 24.9314 12.9425H38.5987C38.6485 12.8597 38.7169 12.7894 38.7987 12.7369C38.8804 12.6844 38.9732 12.6511 39.07 12.6397C39.1164 12.6296 39.1645 12.6288 39.2113 12.6375C39.2581 12.6461 39.3027 12.6641 39.3423 12.6902C39.3819 12.7163 39.4157 12.75 39.4418 12.7894C39.4679 12.8287 39.4857 12.8729 39.4941 12.9192H42.204C42.7072 12.6239 43.3036 12.5243 43.8771 12.6397C44.1834 12.104 43.3351 10.4734 44.3955 10.9626C45.4559 11.4517 45.4323 10.4268 45.9036 10.1007C46.5398 10.5666 46.4927 12.1272 46.964 12.8261H48.5428L50.1688 11.8477L51.5826 10.9859C51.9832 11.5216 51.4177 12.2903 51.5826 12.8261H52.2188C52.2188 12.4068 52.2188 12.0341 52.808 12.2204C53.155 12.3412 53.4638 12.55 53.7034 12.8261H60.4192C60.8128 12.1093 61.2957 11.4441 61.8567 10.8461C62.0248 10.6712 62.2247 10.529 62.4458 10.4268C62.4458 12.2204 62.9406 12.7562 63.5769 12.7562H65.2499L65.5563 12.3602L65.2735 12.7562H69.9864C69.9864 12.5232 70.1277 12.267 70.222 12.0108C70.2602 12.2578 70.2602 12.5091 70.222 12.7562H82.0042C82.2698 12.3787 82.6215 12.0682 83.0308 11.8497C83.4401 11.6312 83.8956 11.5109 84.3606 11.4983L83.6065 12.7562H86.8348L87.1883 12.6397H87.6125V12.9891H89.1441L88.8614 11.2654C88.9867 11.3705 89.1345 11.4462 89.2937 11.4865C89.4529 11.5269 89.6194 11.5309 89.7804 11.4983C90.1103 11.4983 90.3931 11.4983 90.558 12.1738H91.2178L91.5477 12.5931V12.0574L91.7127 11.8477L91.8776 11.6148L91.7127 12.0341L91.5477 12.4534H91.7127C92.6552 12.8959 91.9954 11.6148 92.2075 11.2887C93.2915 11.2887 94.399 11.475 94.9645 12.7562H97.321C97.3993 12.5065 97.4468 12.2484 97.4624 11.9875H96.7083H95.9542C96.1444 11.6263 96.4 11.3026 96.7083 11.0324C97.0853 10.7529 97.321 11.0324 97.4624 12.1971C98.0515 13.3152 99.2061 11.5682 99.8188 12.9425H140.467C140.592 12.7656 140.763 12.6261 140.963 12.5398C141.162 12.4534 141.382 12.4235 141.598 12.4534C142.674 12.5612 143.744 12.7245 144.803 12.9425H146.099C146.099 12.4301 145.746 12.2903 145.109 12.5698C145.109 12.267 145.321 11.9875 145.416 11.6847C146.176 11.5446 146.857 11.1294 147.324 10.52C147.403 10.4073 147.459 10.2808 147.489 10.1473H143.743V10.3103L143.059 10.0075H138.488C138.162 10.4703 137.765 10.8791 137.31 11.2188C136.084 12.1971 135.448 11.2188 134.953 10.0075H133.139C132.526 10.3802 131.984 11.0324 131.206 10.7063C131.206 10.287 130.853 10.2172 130.57 10.4734L129.91 10.6365L129.604 10.0774H124.066C124.024 10.2849 124.024 10.4988 124.066 10.7063H123.784C123.614 10.4851 123.494 10.2311 123.43 9.96094H121.969C122.194 10.5179 122.322 11.1087 122.346 11.708H122.158L120.767 11.079C120.65 10.8461 120.532 10.5433 120.39 11.079C120.261 11.0976 120.143 11.1642 120.061 11.2654C120.061 11.4051 119.919 11.6148 120.061 11.9409C119.542 11.7313 119.424 12.2204 119.33 12.7096C119.297 12.6932 119.261 12.6847 119.224 12.6847C119.187 12.6847 119.151 12.6932 119.118 12.7096C119.118 11.5682 118.364 11.4284 117.822 11.0092V10.0774H112.261C112.476 10.3679 112.673 10.6713 112.85 10.9859L112.402 11.475C111.106 10.3569 109.81 9.14566 108.938 12.0574C107.976 11.4366 106.83 11.1573 105.686 11.2654C105.637 11.054 105.643 10.8336 105.705 10.6254C105.767 10.4173 105.882 10.2285 106.04 10.0774H87.1883C87.2094 10.1537 87.2094 10.2341 87.1883 10.3103H86.9527L86.3871 10.124H76.1366C76.5608 12.4534 74.7463 11.5449 73.9216 12.0574L75.736 10.124H13.3613C13.3249 10.4569 13.3249 10.7927 13.3613 11.1256C13.0314 11.1256 12.89 11.6381 12.6779 11.9642C12.4658 12.2903 12.2773 12.3369 11.9003 11.9642L11.7825 10.9626C11.6175 10.9626 11.3583 11.1722 11.2876 11.3586C11.052 11.9642 11.4526 11.9642 11.7825 12.0807ZM113.392 10.5433L113.604 10.3103V10.1473C113.612 10.2091 113.612 10.2718 113.604 10.3336V10.9626H113.392H113.109L113.392 10.5433ZM30.6339 11.5216C30.7753 11.5216 30.9167 11.8011 31.0817 11.9409C31.2466 12.0807 30.846 12.3136 30.7518 12.3136C30.5944 12.2076 30.4448 12.0909 30.304 11.9642C30.6339 11.708 30.6339 11.475 30.6339 11.5216Z" fill="#0D0DFF"/>
<path d="M155.714 404.113H154.041C154.253 405.115 153.051 404.812 153.004 406.186C153.899 405.79 154.818 405.418 155.714 405.068L158.07 404.113H155.714Z" fill="#0D0DFF"/>
<path d="M135.495 406.909C135.606 406.789 135.701 406.656 135.778 406.513H134.624C134.388 406.233 134.176 405.93 133.94 405.627C134.339 405.15 134.701 404.644 135.024 404.113H131.961C132.17 404.186 132.347 404.328 132.463 404.514C132.578 404.701 132.626 404.921 132.597 405.138H131.961L129.911 404.113H128.732C129.16 404.812 129.318 405.638 129.18 406.443V406.978L135.495 406.909Z" fill="#0D0DFF"/>
<path d="M155.525 406.91V406.56C155.532 406.676 155.532 406.793 155.525 406.91Z" fill="#0D0DFF"/>
<path d="M155.643 405.791C155.643 405.791 155.643 406.001 155.502 406.094L155.714 406.21C155.714 406.21 155.714 406.001 155.855 405.907L155.667 405.791H155.643Z" fill="#0D0DFF"/>
<path d="M6.48118 37.9839H7.11742H7.77722V12.8734H10.4871C10.5699 12.7429 10.6251 12.5972 10.6494 12.4451C10.6737 12.293 10.6666 12.1375 10.6285 11.9882C10.3457 11.336 8.83761 12.2211 9.28533 11.2428C9.45028 10.8701 9.6388 10.4741 9.85088 10.0781H6.55187C6.55187 10.3809 6.55187 10.7303 6.55187 11.0332C6.55855 11.2139 6.50752 11.3922 6.40602 11.5427C6.30452 11.6932 6.15769 11.8083 5.98633 11.8717V34.6995L6.48118 35.0722V36.3534L6.05702 36.1903V38.0305H6.43405L6.48118 37.9839Z" fill="#0D0DFF"/>
<path d="M263.403 320.606H263.167C262.836 320.449 262.52 320.262 262.225 320.047V330.436C262.531 330.622 262.602 331.065 262.625 331.554L262.225 331.833V369.779H262.46L263.167 370.082H263.403H263.544L264.086 370.338V368.009L263.662 368.428C263.662 368.125 263.662 367.799 263.662 367.496H264.18V343.83L263.615 342.339L263.474 342.013L263.309 341.57L263.474 341.43L263.615 341.314L264.18 340.825V320.629C263.997 320.688 263.799 320.688 263.615 320.629L263.403 320.606Z" fill="#0D0DFF"/>
<path d="M30.7761 406.909H117.54C117.912 406.815 118.258 406.64 118.553 406.397L118.86 406.909H119.944L118.671 405.605C118.297 405.191 118.073 404.667 118.035 404.114H7.77734V398.989C7.59134 399.216 7.38639 399.426 7.16467 399.618C6.964 399.781 6.75133 399.929 6.52843 400.061L5.96289 400.387V406.863H10.4165V406.606L10.6522 406.863H30.8233L30.7761 406.909ZM105.074 405.185C105.357 405.162 105.64 405.162 105.923 405.185C105.923 405.861 105.805 406.676 105.122 406.746C104.556 406.746 104.391 406.164 104.297 405.535C104.395 405.426 104.515 405.339 104.648 405.279C104.782 405.219 104.927 405.187 105.074 405.185ZM17.8864 405.418L17.6744 404.696H18.3813L18.0278 405.185L17.8864 405.418Z" fill="#0D0DFF"/>
<path d="M263.403 371.549H263.167C262.98 371.562 262.792 371.523 262.626 371.436C262.459 371.35 262.321 371.22 262.225 371.06V404.113H258.195L258.761 404.766C259.34 405.345 259.705 406.1 259.798 406.909H260.552C260.577 406.78 260.616 406.655 260.67 406.536C261.047 405.534 261.848 405.488 262.484 406.862C262.379 405.378 262.612 403.889 263.167 402.506C263.235 402.383 263.314 402.266 263.403 402.157C263.408 402.219 263.408 402.281 263.403 402.343C263.615 402.786 263.756 403.414 263.969 403.927V400.41L263.804 400.13C263.899 399.884 263.955 399.625 263.969 399.361V371.362H263.403V371.549Z" fill="#0D0DFF"/>
<path d="M258.831 405.953V406.139C258.844 406.078 258.844 406.015 258.831 405.953Z" fill="#0D0DFF"/>
<path d="M257.794 404.113H257.134C256.808 404.324 256.428 404.436 256.038 404.436C255.649 404.436 255.268 404.324 254.943 404.113L254.33 406.629C252.139 407.607 251.125 404.696 249.381 404.3C249.163 404.264 248.94 404.264 248.722 404.3H227.867L228.527 405.394C227.104 404.952 225.562 405.086 224.238 405.767C224.215 405.976 224.215 406.187 224.238 406.396C224.225 406.621 224.225 406.847 224.238 407.072H257.393C257.827 406.148 257.966 405.117 257.794 404.113Z" fill="#0D0DFF"/>
<path d="M150.271 406.629C150.264 406.722 150.264 406.816 150.271 406.909H150.624C150.624 406.909 150.624 406.909 150.436 406.769L150.271 406.629Z" fill="#0D0DFF"/>
<path d="M146.1 404.417C146.274 404.809 146.364 405.234 146.364 405.663C146.364 406.092 146.274 406.516 146.1 406.909H149.399C149.276 406.71 149.116 406.536 148.927 406.397L148.362 405.791L148.598 405.465H148.762L148.621 405.302C148.621 404.254 149.163 404.37 149.681 404.323L150.011 404.766C150.137 404.781 150.254 404.838 150.341 404.929C150.789 405.302 150.907 406.21 151.166 406.932H152.651C152.394 406.177 152.394 405.359 152.651 404.603C152.524 404.691 152.382 404.752 152.231 404.785C152.08 404.817 151.925 404.819 151.773 404.791C151.621 404.763 151.477 404.705 151.349 404.62C151.22 404.536 151.11 404.427 151.025 404.3C151.038 404.215 151.038 404.129 151.025 404.044H140.821C141.481 404.906 142.164 405.791 143.178 404.3C143.696 404.789 143.555 405.907 144.356 405.814C145.157 405.721 145.039 403.974 146.1 404.417Z" fill="#0D0DFF"/>
<path d="M262.225 203.461V282.52C262.225 282.31 262.225 282.031 262.437 281.961C262.649 281.891 262.908 281.961 263.167 282.357L263.403 282.776L263.544 283.009L263.78 283.382H263.544H263.403L263.167 283.265L262.225 282.8V314.339C262.495 314.136 262.827 314.029 263.167 314.036H263.403H263.544C263.69 314.169 263.81 314.327 263.898 314.502L263.544 314.875L263.403 314.991L263.167 315.248L262.225 316.179C262.388 316.145 262.556 316.146 262.719 316.182C262.882 316.218 263.035 316.289 263.167 316.389L263.403 316.622L263.544 316.762C263.72 317.005 263.908 317.238 264.11 317.461V311.497C263.941 311.37 263.76 311.261 263.568 311.171C263.666 310.807 263.852 310.471 264.11 310.193V282.543C263.544 282.171 263.638 281.495 263.615 280.889C263.714 280.905 263.808 280.94 263.893 280.992C263.978 281.044 264.052 281.112 264.11 281.192V234.908C264.097 234.838 264.097 234.767 264.11 234.698C264.069 234.601 264.069 234.492 264.11 234.395V232.066L263.78 231.88H264.11V203.205C263.949 203.35 263.755 203.454 263.544 203.508H263.403H263.167C262.857 203.505 262.551 203.434 262.272 203.298L262.225 203.461Z" fill="#0D0DFF"/>
<path d="M115.324 0.993164H114.971L115.206 2.85666C115.583 1.80844 115.607 1.27269 115.324 0.993164Z" fill="#0D0DFF"/>
<path d="M115.136 3.32286C115.136 3.32286 114.947 3.1831 114.877 3.32286C114.806 3.46262 114.877 3.50921 114.735 3.62568C114.594 3.74214 114.947 3.76544 115.018 3.62568C115.067 3.52874 115.107 3.42732 115.136 3.32286Z" fill="#0D0DFF"/>
<path d="M114.712 0.993164H112.356C112.149 1.19454 111.96 1.41272 111.79 1.64539C112.287 1.84222 112.832 1.88525 113.354 1.76877C113.876 1.6523 114.349 1.38181 114.712 0.993164Z" fill="#0D0DFF"/>
<path d="M112.449 3.9281C111.86 2.29755 111.13 2.01802 110.281 2.94977L112.166 3.9281H112.449Z" fill="#0D0DFF"/>
<path d="M116.832 2.29785H116.762L116.785 2.39109L116.832 2.29785Z" fill="#0D0DFF"/>
<path d="M246.507 413.291C246.498 413.221 246.498 413.151 246.507 413.081H245.682C245.637 413.153 245.571 413.21 245.493 413.244C245.361 413.326 245.201 413.355 245.048 413.325C244.895 413.294 244.759 413.207 244.669 413.081H214.035L212.268 416.016H235.054C235.133 415.902 235.22 415.793 235.313 415.69V416.016H242.218C242.432 415.856 242.671 415.73 242.925 415.643L243.09 415.783V415.55C243.09 414.549 242.218 414.968 241.841 414.036L243.867 414.409C243.867 414.921 243.867 415.527 243.867 416.016H245.069C245.072 415.784 245.12 415.555 245.21 415.341C245.847 414.176 246.766 415.084 247.567 414.758C247.85 413.477 247.072 413.477 246.507 413.291Z" fill="#0D0DFF"/>
<path d="M117.633 3.32227L116.055 4.02108H117.469C117.578 3.80397 117.634 3.56471 117.633 3.32227Z" fill="#0D0DFF"/>
<path d="M248.251 413.291C250.301 413.035 249.688 414.642 249.571 415.947H250.513C250.513 414.992 250.513 413.967 250.702 413.012H248.345L248.251 413.291Z" fill="#0D0DFF"/>
<path d="M269.128 12.9656L268.634 13.8275C268.62 13.928 268.62 14.0298 268.634 14.1303L268.139 14.5729V24.9153C268.512 24.8883 268.878 24.8017 269.223 24.6591C269.525 24.535 269.816 24.387 270.095 24.2165V21.8871C269.835 21.8871 269.529 21.8871 269.223 21.4911L269.034 21.2116C269.078 21.057 269.142 20.9083 269.223 20.769C269.436 20.3895 269.734 20.0629 270.095 19.814V14.5729L269.647 14.2701C269.647 13.8974 269.906 13.5713 270.095 13.1986V12.36C270.006 12.2185 269.895 12.0925 269.765 11.9873L269.128 12.9656Z" fill="#0D0DFF"/>
<path d="M145.44 3.92817H147.961C146.1 3.50888 146.406 2.22773 146.736 0.993164H145.204C145.345 1.85503 146.1 2.74019 145.44 3.92817Z" fill="#0D0DFF"/>
<path d="M66.8291 0.993164V1.20331L66.8527 1.22666L67.3475 0.993164H66.8291Z" fill="#0D0DFF"/>
<path d="M268.045 25.7076V221.957C268.21 222.166 268.186 222.446 268.045 222.912V237.424C268.374 237.241 268.754 237.168 269.129 237.214C269.491 237.318 269.801 237.55 270.001 237.866V233.93C269.765 233.557 269.529 233.138 269.317 232.718C269.577 232.439 269.742 232.253 270.001 232.276V213.268C269.815 213.229 269.651 213.119 269.546 212.963C269.44 212.806 269.4 212.615 269.435 212.43C269.435 211.894 269.694 211.708 270.001 211.638V199.711C269.529 200.364 269.388 199.362 269.129 198.896C269.129 198.896 269.129 198.733 268.917 198.71C268.929 198.47 269.002 198.238 269.129 198.034C269.341 197.755 269.694 198.034 270.001 198.197V194.074C269.742 194.074 269.412 194.33 269.223 194.214C269.035 194.098 269.058 193.981 269.058 193.632C269.056 193.396 269.112 193.164 269.223 192.956C269.412 192.607 269.742 192.63 270.095 192.677V106.863L269.223 106.513L268.705 106.374C268.705 106.047 268.54 105.698 268.469 105.349C268.709 105.239 268.963 105.161 269.223 105.116C269.513 105.093 269.805 105.093 270.095 105.116V25.1719L269.223 25.4747L268.045 25.7076ZM269.223 34.2797L269.553 34.4195C269.718 35.258 269.694 35.9103 269.129 35.9335C268.965 35.9628 268.798 35.9628 268.634 35.9335C268.634 35.4211 268.634 34.9319 268.634 34.4195V34.2331H268.964C268.979 34.2738 269.004 34.3101 269.037 34.3386C269.07 34.3672 269.11 34.3869 269.152 34.3962L269.223 34.2797Z" fill="#0D0DFF"/>
<path d="M151.967 0.993164H151.024V1.22666C151.181 1.25038 151.34 1.25038 151.496 1.22666C151.668 1.18361 151.829 1.10394 151.967 0.993164Z" fill="#0D0DFF"/>
<path d="M252.139 414.13C252.28 413.757 252.421 413.385 252.516 413.059H251.785L251.243 415.994H252.209L252.351 415.784C252.924 414.96 253.332 414.035 253.552 413.059H252.916L252.139 414.13Z" fill="#0D0DFF"/>
<path d="M268.634 8.82015C268.445 8.42416 268.162 8.61051 267.95 8.82015V10.6371C268.209 10.2876 268.139 9.77519 268.209 9.3559C268.634 9.3559 268.94 9.23943 268.634 8.82015Z" fill="#0D0DFF"/>
<path d="M120.485 2.46019C120.485 2.46019 120.296 2.34372 120.178 2.27384C120.061 2.20396 120.178 2.55336 120.178 2.62324C120.178 2.69312 120.343 2.73971 120.438 2.80959C120.532 2.87947 120.508 2.53007 120.485 2.46019Z" fill="#0D0DFF"/>
<path d="M146.1 413.058C146.352 413.243 146.548 413.493 146.665 413.781C146.382 414.666 145.935 414.922 145.275 414.363C145.511 414.014 145.628 413.221 145.911 413.058H144.591C144.577 413.501 144.473 413.937 144.285 414.34C144.287 414.933 144.476 415.512 144.827 415.993H152.391L151.991 414.316C153.028 415.132 154.347 413.618 155.337 415.155C156.327 416.692 157.552 414.596 158.377 415.97H163.796C163.718 415.444 163.761 414.908 163.92 414.4C164.079 413.892 164.351 413.426 164.715 413.035H146.1V413.058Z" fill="#0D0DFF"/>
<path d="M143.861 3.928C143.602 3.08943 143.719 1.94804 142.753 1.59863C142.444 2.33556 142.37 3.14833 142.541 3.928H143.861Z" fill="#0D0DFF"/>
<path d="M261.564 413.058H258.077C258.571 413.874 256.451 414.572 258.077 415.388C257.868 415.527 257.678 415.691 257.511 415.877H259.208C259.906 414.855 260.694 413.896 261.564 413.012V413.058Z" fill="#0D0DFF"/>
<path d="M191.72 413.804L192.45 413.944V413.059H164.715C165.469 415.598 167.283 413.548 168.391 414.689C168.627 413.711 169.027 413.501 169.428 413.571C169.773 413.674 170.112 413.798 170.441 413.944C170.51 413.921 170.584 413.921 170.653 413.944C170.686 413.927 170.722 413.919 170.759 413.919C170.796 413.919 170.832 413.927 170.865 413.944C170.806 414 170.733 414.04 170.653 414.06H170.441C170.135 414.34 169.828 414.992 169.428 415.225C169.027 415.458 168.815 415.341 168.391 414.806C168.341 415.115 168.201 415.404 167.987 415.635C167.774 415.867 167.496 416.032 167.189 416.11H170.276C170.332 415.949 170.403 415.793 170.488 415.644H170.653C171.007 415.644 171.336 415.854 171.643 416.18H173.292C173.422 415.968 173.524 415.741 173.599 415.504L173.787 416.18H176.591C178.804 415.522 181.165 415.522 183.378 416.18H186.865C187.596 415.435 188.538 415.644 189.457 415.761C189.473 415.9 189.473 416.041 189.457 416.18H190.871V415.621C190.4 414.06 190.871 413.734 191.72 413.804Z" fill="#0D0DFF"/>
<path d="M95.9784 3.92817H104.721C104.798 3.90737 104.879 3.90737 104.956 3.92817C105.008 3.90501 105.064 3.89304 105.121 3.89304C105.178 3.89304 105.234 3.90501 105.286 3.92817H108.538C108.915 3.34582 109.245 2.64701 109.622 1.9482C109.622 1.71527 109.881 1.48233 110.023 1.24939L110.211 0.993164H73.8279C74.0184 1.24817 74.1104 1.56214 74.0871 1.87832C73.7148 2.00045 73.3093 1.97672 72.9542 1.81203C72.5991 1.64734 72.3214 1.35425 72.1784 0.993164L68.8087 0.993164C68.8087 1.36586 68.8087 1.83174 68.8087 2.29761C68.1018 2.18114 67.442 1.45904 66.9471 3.01971C66.9471 2.06467 66.9471 1.64539 66.9471 1.2261L66.4051 0.993164H62.3992V1.66868L61.8101 0.993164H46.4697C46.4697 1.92491 47.1295 2.90324 46.4697 3.88158H95.9548L95.9784 3.92817ZM104.603 1.36586H104.909V1.48233L104.603 3.20606V3.67194C104.249 2.36749 104.132 1.69197 104.603 1.36586ZM103.401 2.55384C103.413 2.6856 103.413 2.81807 103.401 2.94983C103.401 2.94983 103.401 2.94983 103.401 3.08959L103.283 2.6936L103.401 2.55384ZM69.6099 2.18114L69.7513 1.90162L70.034 2.06467L70.4582 2.3442C70.4582 2.46067 70.4582 2.60043 70.2697 2.74019L70.034 2.53055L69.6099 2.18114Z" fill="#0D0DFF"/>
<path d="M256.31 413.409L256.97 413.059H256.263C256.267 413.177 256.283 413.294 256.31 413.409Z" fill="#0D0DFF"/>
<path d="M210.807 414.712C210.801 414.147 210.905 413.585 211.113 413.059H198.624C198.466 413.283 198.399 413.557 198.436 413.827L196.81 414.34L198.86 415.574C198.671 414.759 198.577 414.316 198.483 413.851C199.284 413.851 200.25 412.034 200.651 414.759C200.91 416.646 202.63 414.759 203.714 415.761L202.748 415.994H203.879H203.549L206.872 415.551C207.296 414.969 206.047 414.829 206.636 414.316C206.824 414.153 207.249 414.456 207.555 414.549C207.666 414.782 207.792 415.008 207.932 415.225L207.743 415.994H211.584C211.302 415.365 211.302 414.806 210.807 414.712Z" fill="#0D0DFF"/>
<path d="M253.788 413.059C254.283 414.107 254.754 415.015 255.744 413.524C255.576 413.308 255.346 413.146 255.084 413.059H253.788Z" fill="#0D0DFF"/>
<path d="M121.711 3.01971L122.3 3.62535L122.064 3.92817H124.256C124.377 3.08492 124.591 2.2571 124.892 1.45904C123.737 1.06305 123.242 2.55384 122.347 2.53055C122.241 2.02345 122.241 1.50026 122.347 0.993164L121.569 0.993164C121.192 1.62209 120.744 2.29761 121.711 3.01971Z" fill="#0D0DFF"/>
<path d="M118.153 3.92784H119.92C119.449 2.73986 119.449 0.7599 117.563 1.92458C117.796 2.20047 117.968 2.52077 118.069 2.86547C118.171 3.21017 118.199 3.57183 118.153 3.92784Z" fill="#0D0DFF"/>
<path d="M126.188 3.5557C126.102 3.58855 126.024 3.63875 125.959 3.70308C125.894 3.76741 125.844 3.84445 125.811 3.92929H126.824C126.781 3.80171 126.693 3.69376 126.576 3.62517C126.459 3.55657 126.321 3.53192 126.188 3.5557Z" fill="#0D0DFF"/>
<path d="M269.977 0.993164H259.986L260.269 2.78678C259.742 2.32654 259.414 1.68496 259.35 0.993164L159.036 0.993164C159.016 1.25598 158.917 1.50699 158.754 1.71527L158.047 2.53055L156.185 0.993164C155.078 2.64701 153.334 1.99479 152.085 2.99642L151.496 2.04138L151.025 1.2261H149.917V0.993164H149.21V1.24939C149.022 1.85503 147.985 2.22773 148.81 3.08959C149.634 3.95146 149.87 2.62372 150.365 2.13455L151.543 3.32253L152.038 3.8117V3.92817H164.715C164.951 3.32253 164.951 2.6936 165.54 2.62372C166.129 2.55384 166.318 3.18277 166.412 3.83499H268.139V8.30738L269.223 8.19091H269.388C269.524 8.18727 269.658 8.21484 269.781 8.27145C269.903 8.32805 270.011 8.41213 270.095 8.51702V4.9065C269.859 4.9065 269.412 4.9065 269.223 4.74344C269.035 4.58039 269.082 4.39404 269.223 4.02134L269.341 3.74182C269.574 3.85991 269.834 3.9161 270.095 3.90487V0.993164H269.977Z" fill="#0D0DFF"/>
<path d="M136.674 3.7884V3.92817H141.386C141.339 3.63499 141.339 3.33619 141.386 3.04301C141.528 2.3442 141.575 1.62209 141.646 0.993164H140.397C140.287 1.17376 140.143 1.33189 139.973 1.45904V0.993164H136.839C136.724 1.38616 136.574 1.76817 136.391 2.13455C135.849 1.9715 135.354 2.13455 134.906 2.87995H136.084L136.674 3.7884Z" fill="#0D0DFF"/>
<path d="M130.123 1.87794C129.817 1.17913 129.345 1.13255 128.898 1.45866C128.802 1.73027 128.802 2.02562 128.898 2.29723C129.369 2.64663 129.817 2.55346 130.123 1.87794Z" fill="#0D0DFF"/>
<path d="M1.95635 401.202H1.3908C1.22544 401.211 1.06122 401.17 0.919516 401.086C0.778847 401 0.659289 400.885 0.569592 400.748C0.479894 400.611 0.422326 400.455 0.401101 400.294C0.401101 399.595 0.566051 398.686 0.0712003 398.337H0.000507288V404.463H0.872387C1.34367 404.463 1.90922 404.463 1.3908 405.605C1.22574 405.533 1.05112 405.486 0.872387 405.465C0.584232 405.434 0.292906 405.474 0.0240716 405.581H0.000507288V408.4L0.589615 408.213C0.600284 408.33 0.600284 408.447 0.589615 408.563C0.589615 408.936 0.448229 409.308 0.0712003 409.029C-0.00212536 408.947 -0.0582135 408.852 -0.09375 408.749H0.000507288V415.947H9.1199C9.26129 415.458 9.1199 414.712 9.26129 414.246C9.89752 412.197 11.6177 414.246 12.3482 413.012H1.95635V401.202ZM0.872387 414.503C0.627201 414.474 0.40096 414.358 0.236151 414.177L0.872387 413.641L1.24942 413.291C1.24942 413.501 1.57932 413.874 1.53219 413.944C1.48506 414.014 1.17872 414.526 0.872387 414.503Z" fill="#0D0DFF"/>
<path d="M0.872856 95.0764C1.21367 95.1736 1.55985 95.2514 1.90969 95.3093V93.2129C1.60555 93.4152 1.23291 93.4905 0.872856 93.4225H0.0245409H0.000976562V94.8667L0.872856 95.0764Z" fill="#0D0DFF"/>
<path d="M0.872856 384.151C1.21172 384.028 1.55801 383.927 1.90969 383.848V375.299H1.72117C1.69539 375.244 1.65034 375.199 1.59416 375.173C1.53797 375.148 1.47437 375.143 1.41484 375.159L1.08494 374.996C0.896421 374.018 0.967114 373.296 1.90969 373.552V304.184C1.57191 304.276 1.22322 304.323 0.872856 304.323C0.590564 304.346 0.306834 304.346 0.0245409 304.323H0.000976562V347.673L0.165927 347.556C0.56652 348.348 0.519392 348.954 0.0245409 349.327H0.000976562V384.57C0.276248 384.401 0.56842 384.261 0.872856 384.151Z" fill="#0D0DFF"/>
<path d="M0.400974 394.657L0.87226 394.983L1.08434 395.122C1.0946 395.24 1.08113 395.358 1.04472 395.47C1.00831 395.582 0.949678 395.685 0.87226 395.775C0.589489 396.217 0.188895 396.683 0.87226 397.312L1.81483 395.658V384.594C1.45359 384.692 1.10552 384.833 0.778003 385.013L-0.0703125 385.549H0.000380464V388.018C0.100207 387.885 0.227492 387.775 0.373764 387.695C0.520035 387.614 0.681938 387.566 0.848696 387.552C1.1079 387.552 1.39068 387.762 1.67345 388.274C1.53244 388.746 1.24371 389.162 0.848696 389.462C0.58409 389.667 0.299991 389.847 0.000380464 389.998V394.657C0.0634642 394.684 0.13169 394.699 0.200677 394.699C0.269665 394.699 0.33789 394.684 0.400974 394.657Z" fill="#0D0DFF"/>
<path d="M269.199 412.592C268.803 412.369 268.439 412.095 268.115 411.777V413.058H269.199H270.071V412.127V410.799C269.576 410.962 269.317 411.498 269.199 412.592Z" fill="#0D0DFF"/>
<path d="M264.981 414.293C264.658 414.82 264.419 415.394 264.274 415.993H267.573C267.595 415.87 267.595 415.744 267.573 415.621L264.981 414.293Z" fill="#0D0DFF"/>
<path d="M268.94 415.621C268.469 415.364 268.092 415.271 268.092 416.063H268.752L268.94 415.644L269.129 415.76C269.283 415.878 269.448 415.979 269.623 416.063H270.001V413.897C269.834 413.869 269.663 413.889 269.509 413.956C269.354 414.022 269.222 414.131 269.129 414.27C268.913 414.686 268.847 415.162 268.94 415.621Z" fill="#0D0DFF"/>
<path d="M109.834 3.11311V3.27655L110.046 3.06641H109.834V3.11311Z" fill="#0D0DFF"/>
<path d="M0.0245409 215.062H0.000976562V215.109L0.0245409 215.085V215.062Z" fill="#0D0DFF"/>
<path d="M0.000976562 40.7559V42.5029C0.448699 41.8972 0.165927 41.3382 0.000976562 40.7559Z" fill="#0D0DFF"/>
<path d="M0.872856 91.8389C1.22147 91.8444 1.56872 91.8834 1.90969 91.9554V77.9792L1.46196 77.327C0.472263 76.4884 2.07464 74.6715 0.872856 73.9028L0.660778 73.7864L0.378006 71.457L0.872856 72.1791L1.57979 73.1807C1.42398 72.3903 1.18711 71.6176 0.872856 70.8746C0.697444 70.4201 0.405034 70.0186 0.0245409 69.71H0.000976562V92.0952C0.282566 91.9822 0.574552 91.8964 0.872856 91.8389Z" fill="#0D0DFF"/>
<path d="M0.872856 66.8679L1.90969 67.1707V44.6458H1.79186C1.81756 44.4415 1.85692 44.2392 1.90969 44.0401C1.92072 43.9707 1.92072 43.8999 1.90969 43.8305V42.3164C1.66924 42.5605 1.3908 42.765 1.08494 42.922H0.872856C0.495827 43.1783 0.189491 43.6674 0.0245409 42.922V66.7282H0.000976562L0.872856 66.8679Z" fill="#0D0DFF"/>
<path d="M0.872856 99.1996C1.27859 98.6295 1.62591 98.0209 1.90969 97.3827V96.8004C1.55703 96.7248 1.21048 96.6235 0.872856 96.4976C0.583701 96.4448 0.299827 96.3668 0.0245409 96.2646H0.000976562V98.594L0.213055 98.8269H0.0245409H0.000976562V99.8752C0.189078 99.8365 0.365607 99.7554 0.516828 99.6382C0.66805 99.521 0.789886 99.371 0.872856 99.1996Z" fill="#0D0DFF"/>
<path d="M0.872856 3.32253L1.90969 2.55384C2.45167 2.78678 2.52236 3.36912 2.56949 3.99805H3.7477C4.51523 3.12544 5.08562 2.10101 5.42077 0.993164H2.87582C2.63379 1.38121 2.35781 1.74755 2.05107 2.08797L2.00394 0.993164H0.000976562V3.95146C0.272166 3.71668 0.563942 3.50621 0.872856 3.32253Z" fill="#0D0DFF"/>
<path d="M0.872856 39.9171L1.69761 39.7541H1.90969V7.49235L0.872856 7.23612C0.56869 7.15587 0.275812 7.0385 0.000976562 6.88672L0.000976563 40.0802L0.872856 39.9171Z" fill="#0D0DFF"/>
<path d="M0.872514 302.67C1.20796 302.814 1.55472 302.931 1.90934 303.019V172.202C1.71943 172.219 1.52803 172.195 1.34881 172.13C1.16959 172.066 1.00695 171.963 0.872514 171.829C0.682923 171.628 0.524145 171.4 0.401228 171.154H0.872514C1.24475 171.053 1.59584 170.887 1.90934 170.665V101.156C1.55577 101.276 1.20956 101.416 0.872514 101.576C0.608876 101.704 0.317974 101.768 0.0241984 101.762H0.000634111V174.671C0.325791 175.044 0.610142 175.45 0.84895 175.882C1.01214 176.146 1.16157 176.419 1.29667 176.698C1.17224 176.848 1.02039 176.975 0.84895 177.07C0.636871 177.187 0.401228 177.07 0.000634111 176.837V196.194H0.14202C0.387683 196.19 0.630587 196.246 0.84895 196.357C0.973348 196.435 1.07136 196.547 1.13021 196.68C1.18906 196.813 1.20601 196.96 1.17885 197.103C1.19173 197.235 1.16777 197.367 1.10959 197.486C1.05142 197.605 0.961256 197.706 0.84895 197.778C0.66118 197.881 0.450877 197.937 0.236277 197.941H0.000634111V211.382H0.330535C0.330535 211.102 0.330535 210.8 0.330535 210.497C0.330535 210.194 0.754692 209.751 0.872514 209.728C0.990336 209.705 1.36736 210.869 1.72083 210.939C1.72083 211.941 1.24954 211.778 0.872514 211.592C0.736947 211.47 0.560386 211.404 0.377663 211.405C0.378736 211.975 0.258296 212.538 0.0241984 213.059V215.225H0.000634111L0.707564 215.551C1.08459 215.551 1.55588 215.179 1.50875 216.064C1.46162 216.949 1.10816 217.042 0.707564 217.042C0.433777 217.007 0.156599 217.007 -0.117188 217.042H0.000634111V302.623L0.872514 302.67Z" fill="#0D0DFF"/>
<path d="M268.045 314.107V331.344L268.304 330.739L269.129 331.903C270.166 332.789 268.328 334.768 269.93 335.444V317.391C269.64 317.425 269.348 317.425 269.058 317.391C268.771 317.36 268.488 317.305 268.21 317.228C268.328 316.343 268.634 316.017 269.058 315.924C269.347 315.878 269.641 315.878 269.93 315.924V314.34L269.058 314.107C268.722 314.067 268.381 314.067 268.045 314.107Z" fill="#0D0DFF"/>
<path d="M269.128 311.265C268.893 311.771 268.626 312.261 268.327 312.733C268.594 312.709 268.862 312.709 269.128 312.733C269.422 312.755 269.714 312.801 270 312.872V309.938C269.612 310.309 269.314 310.763 269.128 311.265Z" fill="#0D0DFF"/>
<path d="M269.058 336.166V336.469C269.209 337.386 269.503 338.274 269.93 339.101V337.517L269.058 336.259V336.166Z" fill="#0D0DFF"/>
<path d="M16.3075 2.76406C17.6742 2.15842 18.6639 3.04358 19.4886 3.92874H46.1634H46.4462C46.4462 2.83394 45.9278 1.92549 46.2813 1.08691H14.1395C13.4597 1.93405 13.0278 2.94915 12.8906 4.02192H16.0247L16.3075 2.76406Z" fill="#0D0DFF"/>
<path d="M268.045 239.474V308.097V308.353C268.399 308.426 268.768 308.368 269.082 308.19C269.365 308.19 269.671 307.911 269.954 307.818V238.286C269.65 238.356 269.356 238.466 269.082 238.612C268.691 238.842 268.341 239.133 268.045 239.474Z" fill="#0D0DFF"/>
<path d="M268.045 341.989V365.05C268.156 364.951 268.287 364.875 268.428 364.827C268.57 364.779 268.72 364.759 268.87 364.77C268.705 365.446 268.658 366.145 268.045 366.122V367.636C268.422 367.356 268.775 366.983 269.129 366.75C269.254 366.647 269.398 366.568 269.553 366.517C269.72 366.444 269.871 366.342 270.001 366.215V342.595C269.705 342.539 269.413 342.461 269.129 342.362C268.759 342.262 268.397 342.138 268.045 341.989Z" fill="#0D0DFF"/>
<path d="M11.9708 3.32227H11.7823C11.7718 3.38374 11.7718 3.44653 11.7823 3.50801C11.7823 3.50801 11.9473 3.32227 11.9708 3.32227Z" fill="#0D0DFF"/>
<path d="M268.94 369.662L268.045 369.848V401.76C268.398 401.76 268.752 401.947 269.129 402.04L270.001 402.273V369.452L269.129 369.639L268.94 369.662Z" fill="#0D0DFF"/>
<path d="M13.0786 414.269H14.9873C15.4351 415.434 15.1523 415.806 14.681 415.993H18.2392C18.6398 415.201 19.2054 415.643 19.7238 415.69L19.5117 416.016H34.6636C34.4279 416.016 34.2865 416.016 34.263 415.806C34.263 415.247 34.4515 415.084 34.8285 415.387C35.2055 415.69 35.017 415.573 35.3705 416.016H36.9729L37.0907 415.55C38.2925 414.735 39.777 414.502 40.6725 413.081H12.9844C13.0445 413.474 13.076 413.871 13.0786 414.269Z" fill="#0D0DFF"/>
<path d="M11.4291 0.993164H10.0859C10.2427 1.62043 10.2427 2.27597 10.0859 2.90324C9.68534 3.90487 8.88416 3.95146 8.27148 2.57713C8.27148 3.04301 8.27148 3.50888 8.27148 3.92817H11.3348C11.0074 3.50257 10.838 2.97857 10.8552 2.44413C10.8724 1.9097 11.075 1.39737 11.4291 0.993164Z" fill="#0D0DFF"/>
<path d="M41.356 413.548L41.6152 413.059H41.2617L41.356 413.548Z" fill="#0D0DFF"/>
<path d="M268.634 406.955C268.473 406.875 268.335 406.756 268.232 406.609C268.129 406.463 268.065 406.294 268.045 406.116V408.003L268.61 407.328C268.61 408.073 268.61 408.842 268.61 409.354H269.058C269.348 409.331 269.64 409.331 269.93 409.354V405.977L269.058 406.559L268.634 406.955Z" fill="#0D0DFF"/>
<path d="M7.68216 0.993164H7.49364C7.28156 1.20281 7.11661 1.45904 7.49364 2.11126L7.68216 0.993164Z" fill="#0D0DFF"/>
<path d="M142.871 415.62C141.598 415.061 142.046 414.036 142.282 413.081H139.36H138.794H138.37C138.134 413.081 138.016 413.454 137.993 413.873C137.365 414.342 136.609 414.613 135.822 414.651C135.036 414.688 134.257 414.49 133.586 414.083C133.586 413.757 133.586 413.407 133.586 413.081H130.641V413.966L130.028 413.663C130.052 413.493 130.052 413.321 130.028 413.151H128.473V413.757C128.303 413.565 128.145 413.363 128.002 413.151H124.891L125.527 414.316L125.763 414.153C125.774 414.269 125.774 414.386 125.763 414.502C125.763 414.758 125.763 415.014 125.763 415.271L124.726 414.828L123.831 413.151H97.91C98.0488 413.283 98.2078 413.393 98.3813 413.477H95.907V413.594L96.2134 414.176H95.907C95.5771 414.176 95.4122 414.059 95.907 413.477C95.907 413.477 95.907 413.267 95.907 413.151H77.0556C77.0556 413.687 77.1734 414.269 76.49 414.222C76.2544 414.222 75.8774 413.71 75.8774 413.43C75.8658 413.338 75.8658 413.244 75.8774 413.151H42.416C42.581 414.129 42.416 415.271 43.6649 415.364L43.5235 416.086H48.2364C47.8937 416.112 47.5542 416.005 47.2902 415.787C47.0261 415.57 46.8584 415.259 46.8225 414.921L48.095 415.247H48.3307L48.4485 416.086H98.9704C99.1417 415.989 99.3 415.872 99.4417 415.737C100.031 415.247 101.61 414.222 101.492 416.086H143.507C143.46 415.76 143.271 415.62 142.871 415.62ZM130.641 415.177C130.476 415.038 130.641 414.875 130.641 414.735V414.595V415.177ZM132.008 415.387H131.772L131.301 415.527C131.301 414.945 131.301 414.292 131.772 414.292H131.96C132.55 414.549 132.078 415.038 131.96 415.364L132.008 415.387Z" fill="#0D0DFF"/>
</g>
<defs>
<clipPath id="clip0_33_18300">
<rect width="270" height="415" fill="white"/>
</clipPath>
</defs>
</svg>
