<svg width="128" height="128" viewBox="0 0 128 128" fill="none" xmlns="http://www.w3.org/2000/svg">
<g clip-path="url(#clip0_33_18276)">
<g style="mix-blend-mode:multiply">
<path d="M49.9375 88.2893C49.6771 88.3814 49.393 88.3814 49.1326 88.2893C48.8786 88.1886 48.6534 88.0266 48.4772 87.8178C48.2523 87.5628 48.0663 87.2761 47.9253 86.9667C47.7554 86.6349 47.6056 86.2931 47.4768 85.9432C47.3618 85.6212 47.2354 85.2417 47.1089 84.7932L43.0729 86.9322C43.3474 87.7487 43.7344 88.5229 44.2228 89.2323C44.6969 89.8588 45.2674 90.4062 45.913 90.8539C46.48 91.2383 47.1167 91.5079 47.7873 91.6474C47.7901 91.4174 47.8811 91.1972 48.0416 91.0324C48.2021 90.8676 48.4198 90.7707 48.6497 90.7619C48.7521 90.7549 48.8549 90.7701 48.9509 90.8066C49.0469 90.843 49.1339 90.8997 49.206 90.9729C49.278 91.0461 49.3335 91.1339 49.3684 91.2305C49.4034 91.3271 49.4171 91.4301 49.4086 91.5324C49.4083 91.6348 49.3888 91.7362 49.3511 91.8314C49.8863 91.7956 50.4152 91.6952 50.9263 91.5324C51.3251 91.4209 51.7106 91.2667 52.0762 91.0724C52.0762 90.9804 52.1682 90.8769 52.2602 90.7389L52.4096 90.8654C53.1915 90.3996 53.8501 89.7528 54.3299 88.9793C54.7016 88.3765 54.9357 87.699 55.0152 86.9952C55.0947 86.2914 55.0177 85.5787 54.7898 84.9082C54.5709 84.1637 54.2456 83.4549 53.8239 82.8036C53.4429 82.1938 52.9741 81.6435 52.4326 81.1705C51.9183 80.741 51.3682 80.3563 50.7884 80.0205C50.1586 79.6391 49.5058 79.2972 48.8336 78.9969L47.7988 78.5599C47.3158 78.3644 46.9249 78.1919 46.6489 78.0539C46.302 77.8756 45.9643 77.6798 45.6371 77.4674C45.2791 77.2313 44.9641 76.9357 44.7057 76.5933C44.4477 76.2469 44.253 75.8576 44.1308 75.4433C43.9936 74.9896 43.9936 74.5054 44.1308 74.0517C44.1801 73.8401 44.2883 73.6467 44.443 73.494C44.5977 73.3414 44.7924 73.2357 45.0047 73.1892C45.2469 73.106 45.5099 73.106 45.7521 73.1892C45.9924 73.2914 46.1995 73.4587 46.35 73.6722C46.5109 73.8939 46.6532 74.1285 46.7754 74.3737C46.8957 74.6261 46.9957 74.8876 47.0744 75.1558C47.0744 75.2708 47.1434 75.4318 47.1894 75.6158L47.2929 76.0183L51.4783 74.0862C51.4378 73.9692 51.4032 73.8502 51.3748 73.7297V73.5802C51.1697 72.8426 50.812 72.1564 50.3247 71.566C49.8374 70.9756 49.2314 70.4942 48.5462 70.1531C47.9047 69.7926 47.1956 69.5687 46.4635 69.4954C45.7313 69.4222 44.9919 69.5012 44.2918 69.7276C42.7041 70.1329 41.3331 71.1335 40.4628 72.5222C40.0757 73.2051 39.8414 73.9638 39.7759 74.7461C39.7104 75.5284 39.8153 76.3156 40.0834 77.0534C40.2512 77.6092 40.4867 78.1422 40.7848 78.6404C41.0452 79.0523 41.3456 79.4375 41.6816 79.7905C42.0292 80.1359 42.415 80.4407 42.8315 80.699C43.2032 80.9407 43.587 81.1633 43.9813 81.366C44.3033 81.527 44.7287 81.711 45.2461 81.9295L46.9019 82.6426C47.7577 82.9371 48.5403 83.4118 49.1969 84.0348C49.8535 84.6578 50.3688 85.4145 50.7079 86.2537C51.0298 87.4038 50.7769 88.0248 49.9375 88.2893ZM34.9206 49.7513L37.9447 48.8198L43.3719 66.5419L47.5918 65.2539L42.2106 47.5317L45.2116 46.6117L44.2458 43.4605L33.9547 46.6002L34.9206 49.7513ZM27.3087 71.4641L31.4941 70.1531L30.9422 65.4379L33.6673 64.5984L35.898 68.8075L40.0604 67.531L29.1829 47.9802L25.4459 49.1303L27.3087 71.4641ZM29.1714 54.6965L32.6209 62.1258L30.4707 62.7813L29.1714 54.6965ZM52.1682 25.3703C47.0252 26.94 42.2489 29.5246 38.1213 32.9714C33.9937 36.4183 30.5986 40.6575 28.1365 45.4386L83.3288 28.5675C79.4971 26.469 75.3495 25.0085 71.0485 24.2433C70.9879 24.4622 70.8639 24.6583 70.6921 24.8068C70.5771 24.8988 70.3356 24.8068 69.8987 24.7493C70.1861 24.4503 70.3356 24.2548 70.4621 24.1283C64.361 23.1342 58.113 23.5592 52.2027 25.3703H52.1682ZM37.2778 39.1019C37.1513 38.8029 36.9328 38.5268 36.9558 38.2623C36.9998 37.5615 37.1193 36.8674 37.3123 36.1923C37.4272 35.8472 37.8067 35.5712 38.0596 35.2722C38.3241 35.5827 38.7495 35.8702 38.8185 36.2268C38.835 36.7988 38.7015 37.3652 38.4312 37.8696C38.1609 38.3741 37.7632 38.7989 37.2778 39.1019ZM47.1434 38.6534L44.8437 38.2163L43.1649 39.8724L42.866 37.5723L40.7733 36.4913L42.912 35.4792L43.2914 33.1791L44.9012 34.9042L47.2009 34.5477L46.051 36.6178L47.1434 38.6534ZM58.8832 35.0652L55.4337 34.4212L52.9731 36.8593L52.5361 33.4091L49.466 31.8221L52.5821 30.35L53.1455 26.8999L55.5142 29.4185L58.9637 28.901L57.3769 31.9716L58.8832 35.0652ZM68.4959 32.2016L66.1962 31.7646L64.5059 33.3516L64.207 31.0516L62.0913 29.9015L64.23 28.901L64.6094 26.6009L66.2192 28.3259L68.5189 27.9579L67.369 30.0395L68.4959 32.2016ZM70.7955 27.4634C70.922 27.4634 71.0945 27.6014 71.244 27.6819C71.1635 27.8429 71.1175 28.0614 70.991 28.1189C70.8645 28.1764 70.6921 28.0269 70.4621 27.9464C70.5656 27.6704 70.6346 27.4404 70.7611 27.4059L70.7955 27.4634ZM75.8318 102.676C81.802 100.843 87.265 97.648 91.7904 93.3433C96.3159 89.0386 99.7801 83.7417 101.91 77.8699L40.3133 96.6961C41.2447 97.3746 42.2221 97.9957 43.2109 98.5937C43.2558 98.5213 43.3058 98.4521 43.3604 98.3867L43.6594 98.5937L43.5099 98.7662C44.3263 99.2492 45.1541 99.7092 46.005 100.135C46.005 100.054 46.005 99.9852 46.005 99.9162C46.1488 99.6124 46.3221 99.3235 46.5225 99.0537L48.0632 99.7207C47.6838 100.089 47.4078 100.422 47.0974 100.675C56.0979 104.837 66.318 105.53 75.7973 102.619L75.8318 102.676ZM45.7751 97.5012C44.8092 97.0986 44.8092 97.0986 45.3496 96.3511C45.8211 96.6041 45.9935 96.9031 45.7751 97.5012ZM78.603 96.8801C78.603 96.8801 78.488 96.8801 78.396 96.9606C78.304 97.0411 78.396 96.7766 78.396 96.7306C78.396 96.6846 78.511 96.7306 78.5685 96.6386C78.6033 96.714 78.6153 96.798 78.603 96.8801ZM78.8214 93.154C78.9824 93.154 79.1204 93.154 79.1434 93.154C79.1971 93.2673 79.2357 93.3871 79.2584 93.5105C79.1664 93.5105 79.0514 93.5105 79.0054 93.5105C78.9594 93.5105 78.9019 93.292 78.8214 93.154ZM77.8556 89.7038C78.0212 89.6199 78.2002 89.5654 78.3845 89.5428C78.3845 89.7498 78.3845 89.9684 78.3845 89.9914C78.2495 90.0712 78.0888 90.0959 77.936 90.0604C77.936 90.0604 77.8096 89.7038 77.8556 89.7038ZM80.2587 96.4316H80.0402C79.7988 96.1441 79.8333 95.8796 80.2702 95.4656C80.2587 95.8911 80.2587 96.1556 80.2587 96.4086V96.4316ZM85.5365 95.3736C85.7664 94.5915 86.2379 94.2235 87.2152 94.396C86.8588 95.9601 86.8588 95.9601 85.5365 95.3506V95.3736ZM94.5972 86.8517C94.4937 86.8517 94.3327 86.7482 94.3097 86.6677C94.2867 86.5872 94.4017 86.4607 94.4592 86.3572L94.8042 86.4377L94.5972 86.8517ZM92.4815 82.1251C92.562 81.941 93.0794 81.7225 93.2289 81.8145C94.0683 82.3321 93.7578 83.0796 93.5393 83.8386C93.4017 83.8532 93.263 83.8532 93.1254 83.8386C92.9603 83.7778 92.8103 83.6819 92.6857 83.5577C92.5612 83.4334 92.465 83.2836 92.4038 83.1186C92.3427 82.9536 92.3179 82.7773 92.3313 82.6018C92.3447 82.4263 92.396 82.2558 92.4815 82.1021V82.1251ZM89.9978 85.7937C90.7067 86.2193 91.3728 86.7123 91.9871 87.2657C92.1218 87.4664 92.2067 87.6962 92.2347 87.9363C92.2627 88.1763 92.233 88.4196 92.148 88.6458C91.9986 88.8988 91.2857 88.9218 90.8487 88.8758C90.3442 88.7478 89.8547 88.5666 89.3884 88.3353C89.6874 87.4038 89.7909 86.6907 89.9978 85.7937ZM89.5379 92.901L90.0783 93.2115C89.9978 93.361 89.9289 93.5795 89.8024 93.6255C89.6759 93.6715 89.5034 93.5105 89.3079 93.4185L89.5379 92.901ZM83.2483 87.5878L84.9271 85.9202L85.226 88.2203L87.3187 89.3013L85.1915 90.3019L84.8006 92.602L83.1908 90.8884L80.8911 91.2449L82.041 89.1748L80.9716 87.0587L83.2483 87.5878ZM80.3392 86.2537H80.4887C80.483 86.2995 80.483 86.3459 80.4887 86.3917C80.4887 86.3917 80.3852 86.3917 80.3622 86.3917C80.3392 86.3917 80.3392 86.2537 80.3392 86.2537ZM81.1901 87.9903C81.1901 88.1513 81.1901 88.3468 81.1901 88.4618C81.0305 88.6213 80.8317 88.7361 80.6138 88.7947C80.3958 88.8532 80.1663 88.8534 79.9483 88.7953C79.9746 88.6785 80.0255 88.5687 80.0977 88.4733C80.3104 88.2988 80.5418 88.1484 80.7876 88.0248C80.8566 87.9443 81.0406 87.9903 81.1901 87.9788V87.9903ZM79.1894 87.0127C79.3158 86.7137 79.5228 86.6907 79.7988 86.8402C79.7988 87.1738 79.6148 87.3232 79.3044 87.2428C79.2655 87.2163 79.2343 87.1801 79.2141 87.1376C79.1939 87.0952 79.1853 87.0481 79.1894 87.0012V87.0127ZM77.1542 86.1387C77.3102 86.0982 77.473 86.091 77.632 86.1176C77.7909 86.1441 77.9426 86.2037 78.077 86.2927C78.2115 86.3816 78.3257 86.4978 78.4124 86.6337C78.499 86.7697 78.5561 86.9223 78.5799 87.0817C78.6326 87.2333 78.6529 87.3942 78.6396 87.5541C78.6263 87.714 78.5797 87.8693 78.5028 88.0101C78.4259 88.1509 78.3205 88.2741 78.1931 88.3717C78.0658 88.4693 77.9195 88.5391 77.7636 88.5768C77.4148 88.6413 77.0547 88.5668 76.7603 88.369C76.4658 88.1712 76.2605 87.8661 76.1883 87.5188C76.1552 87.3642 76.1543 87.2045 76.1856 87.0495C76.217 86.8946 76.28 86.7478 76.3706 86.6183C76.4613 86.4888 76.5776 86.3793 76.7124 86.2968C76.8472 86.2143 76.9976 86.1605 77.1542 86.1387ZM69.1858 90.7389L72.5778 91.3829L75.0385 88.9563L75.4754 92.4064L78.557 93.9935L75.4294 95.4541L74.866 98.9042L72.4973 96.3856L69.0478 96.9146L70.7151 93.8785L69.1858 90.7389ZM59.6191 93.6715L61.9188 94.1085L63.5976 92.4409L63.8965 94.741L65.9892 95.8221L63.8505 96.8341L63.4711 99.1342L61.8613 97.4206L59.5616 97.7772L60.7115 95.7071L59.6191 93.6715ZM52.1682 95.4541C51.8347 96.5466 51.5588 96.6041 50.6734 95.8911L52.1682 95.4541ZM51.9382 71.3031L54.9968 70.3716L60.4125 88.0938L64.6324 86.8057L59.2167 69.1295L62.2292 68.221L61.2634 65.0584L50.9148 68.2095L51.9382 71.3031ZM13.0967 69.2791C13.3663 70.0975 13.7536 70.8723 14.2465 71.5791C14.7098 72.2341 15.2768 72.809 15.9253 73.2812C16.6051 73.7672 17.3956 74.0756 18.2249 74.1782C19.1445 74.3014 20.0801 74.2149 20.9616 73.9252C22.3709 73.5108 23.5681 72.5726 24.3076 71.3031C24.6813 70.7012 24.9173 70.0241 24.9988 69.3203C25.0803 68.6165 25.0053 67.9034 24.779 67.232C24.5584 66.4921 24.2414 65.7845 23.8361 65.1274C23.4585 64.5185 22.9892 63.9716 22.4448 63.5058C21.9367 63.0567 21.3903 62.6526 20.8121 62.2983C20.1797 61.9216 19.5272 61.5799 18.8573 61.2747L17.811 60.8377L16.6612 60.3317C16.3102 60.175 15.9686 59.9984 15.6378 59.8027C15.2739 59.5699 14.9546 59.2739 14.6949 58.9286C14.4413 58.5795 14.2471 58.191 14.12 57.7786C13.9887 57.324 13.9887 56.8416 14.12 56.387C14.1752 56.1782 14.2854 55.9881 14.4392 55.8364C14.5929 55.6847 14.7844 55.577 14.9939 55.5245C15.2345 55.4325 15.5006 55.4325 15.7413 55.5245C15.9837 55.6234 16.1916 55.7913 16.3392 56.0075C16.5002 56.2292 16.6425 56.4639 16.7646 56.7091C16.8849 56.9614 16.9849 57.2229 17.0636 57.4911C17.0636 57.6061 17.1441 57.7556 17.1901 57.9511C17.2361 58.1466 17.2706 58.2616 17.2936 58.3536L21.4215 56.3525L21.318 55.996V55.8465C21.113 55.1368 20.767 54.4756 20.3008 53.9026C19.8345 53.3295 19.2576 52.8564 18.6044 52.5114C17.9627 52.1515 17.2536 51.928 16.5216 51.8548C15.7895 51.7816 15.0502 51.8602 14.35 52.0859C12.7592 52.4846 11.3859 53.4869 10.521 54.8805C10.1326 55.5585 9.89635 56.313 9.82884 57.0915C9.76133 57.87 9.86412 58.6539 10.1301 59.3887C10.3017 59.9449 10.5412 60.478 10.843 60.9757C11.0962 61.3927 11.3972 61.7786 11.7398 62.1258C12.0893 62.4692 12.4748 62.7738 12.8897 63.0343C13.2599 63.2784 13.6438 63.5011 14.0395 63.7013C14.35 63.8623 14.7754 64.0463 15.2928 64.2649L16.9486 64.9779C17.8017 65.2849 18.5783 65.7726 19.2253 66.4078C19.8723 67.043 20.3744 67.8106 20.6971 68.658C21.019 69.7276 20.7661 70.3831 19.9267 70.6476C19.6706 70.7417 19.3894 70.7417 19.1333 70.6476C18.8781 70.5431 18.65 70.3818 18.4664 70.1761C18.2487 69.9158 18.0634 69.63 17.9145 69.3251C17.7467 68.9922 17.597 68.6505 17.466 68.3015C17.3511 67.9795 17.2246 67.6 17.0981 67.1515L14.9019 68.3015C15.3884 68.5745 15.8336 68.9153 16.2242 69.3136C16.3597 69.5116 16.4452 69.7396 16.4732 69.978C16.5013 70.2164 16.471 70.458 16.3852 70.6821C16.2472 70.9351 15.5343 70.9581 15.0859 70.9121C14.5835 70.789 14.0973 70.6076 13.6371 70.3716C13.7636 69.7621 13.8785 69.279 13.982 68.796L13.0967 69.2791ZM29.4359 92.947C29.6955 93.4295 30.0037 93.8842 30.3557 94.304C30.6929 94.7004 31.0793 95.0521 31.5056 95.3506C31.9304 95.6563 32.405 95.8859 32.9084 96.0291C33.4689 96.1638 34.0458 96.2181 34.6216 96.1901C35.324 96.145 36.0187 96.0177 36.6913 95.8106C37.3715 95.6075 38.0241 95.3217 38.6346 94.9595C39.1342 94.6451 39.5838 94.2574 39.9684 93.8095C40.3052 93.4141 40.5699 92.9626 40.7503 92.4755C40.934 91.9909 41.0538 91.4844 41.1067 90.9689C41.1636 90.4145 41.1636 89.8557 41.1067 89.3013C41.0398 88.7097 40.94 88.1223 40.8078 87.5418C40.6813 86.9897 40.5203 86.3917 40.3133 85.7247L36.2544 72.7062L32.0345 73.9942L36.0014 86.9897C36.0014 86.9897 36.0014 86.9897 36.0014 87.0587C36.2314 87.7948 36.3924 88.3238 36.4844 88.6573C36.5764 88.9908 36.6798 89.3933 36.7948 89.8764C36.8935 90.2202 36.94 90.5768 36.9328 90.9344C36.9158 91.1758 36.8734 91.4148 36.8063 91.6474C36.754 91.8881 36.6148 92.101 36.4154 92.2454C36.1827 92.4007 35.9264 92.5172 35.6565 92.5905C35.3885 92.6756 35.1097 92.7221 34.8286 92.7285C34.5832 92.722 34.3493 92.6235 34.1732 92.4525C33.989 92.288 33.8161 92.1112 33.6558 91.9234C33.4619 91.6207 33.3037 91.2965 33.1843 90.9574C33.0119 90.4859 32.8624 90.0719 32.7589 89.7383C32.6554 89.4048 32.4714 88.8643 32.253 88.1283L28.2745 75.1328L24.0546 76.4208L28.0676 89.5428C28.263 90.2099 28.47 90.8079 28.677 91.3369C28.8984 91.8879 29.1518 92.4255 29.4359 92.947ZM101.876 75.5008L110.591 72.8327L109.706 69.9346L105.164 71.3031L103.209 64.8744L106.383 63.9083L105.475 60.9527L102.83 61.7693C102.796 61.845 102.74 61.909 102.669 61.9533C102.587 61.9585 102.505 61.9341 102.439 61.8843H102.301V61.7348H102.221V61.6427L100.576 56.249L102.531 55.651L102.876 54.11C103.428 54.501 103.911 54.7885 104.336 55.099L105.061 54.869L104.175 51.9709L95.4366 54.616L101.876 75.5008ZM100.197 58.2501C99.8405 59.8257 99.8405 59.8257 98.5182 59.2277C98.7021 58.4801 99.1736 58.1466 100.151 58.2846L100.197 58.2501ZM68.7603 62.3213C64.6899 63.5633 63.4097 66.6531 64.9199 71.5906L67.0586 78.6059C67.2937 79.3976 67.5976 80.1673 67.9669 80.906C68.2921 81.5609 68.7103 82.1652 69.2088 82.7001C69.6632 83.2079 70.2093 83.6254 70.8185 83.9306C71.4612 84.2411 72.1632 84.4098 72.8768 84.4251C73.7266 84.4509 74.5745 84.3303 75.3834 84.0686C76.2103 83.8202 76.9882 83.4311 77.6831 82.9186C78.2645 82.4956 78.7504 81.9549 79.1089 81.3315C79.442 80.7168 79.6602 80.0465 79.7528 79.3534C79.8505 78.6207 79.8505 77.8781 79.7528 77.1454C79.6542 76.3348 79.4849 75.5343 79.2469 74.7533L77.1312 67.853C75.621 62.9308 72.8308 61.0869 68.7603 62.3213ZM75.6594 82.2401C75.5329 82.2401 75.3489 82.148 75.0959 82.056C75.2454 81.849 75.3374 81.619 75.4524 81.596C75.5674 81.573 75.7628 81.734 75.9123 81.803C75.8893 81.964 75.8088 82.1941 75.6939 82.2401H75.6594ZM75.3144 77.1224C75.9353 79.1694 75.6249 80.3885 74.36 80.768C73.0952 81.1475 72.1639 80.3195 71.5429 78.2724L68.7833 69.2445C68.675 68.8949 68.5943 68.5373 68.5419 68.175C68.5068 67.8232 68.5068 67.4688 68.5419 67.117C68.5592 66.7734 68.675 66.442 68.8753 66.1624C69.1036 65.8835 69.413 65.6825 69.7607 65.5874C71.014 65.1964 71.9569 66.0359 72.5893 68.0945L75.3144 77.1224ZM76.6712 105.597C83.4839 103.527 89.6834 99.8141 94.7241 94.7845C99.7648 89.755 103.492 83.5633 105.578 76.7543L103.865 77.2719C101.752 83.6424 98.1436 89.4139 93.3421 94.1029C88.5406 98.792 82.6857 102.262 76.2677 104.223C69.8496 106.184 63.0553 106.578 56.4537 105.372C49.8521 104.167 43.6354 101.397 38.3241 97.2941L36.5994 97.8232C42.135 102.308 48.6883 105.363 55.6821 106.718C62.6759 108.074 69.8957 107.689 76.7057 105.597H76.6712ZM75.9123 36.9398L75.027 34.0417L66.3227 36.6983L72.6928 57.5831L76.9587 56.3525L74.1071 47.0257L77.2806 46.0021L76.3723 43.035L73.1987 44.0011L71.4625 38.3198L75.9123 36.9398ZM90.6303 56.8701C90.4087 56.9217 90.1771 56.9103 89.9617 56.8371C89.7463 56.7639 89.5557 56.6319 89.4114 56.456L87.4912 57.0426L89.3424 71.7056L82.8689 58.4571L77.8096 60.0097L84.1797 80.883L87.3072 79.9285L82.8803 65.1274L89.9633 79.1234C89.8807 79.0045 89.8285 78.8672 89.8112 78.7234C89.794 78.5796 89.8123 78.4338 89.8645 78.2987C89.9167 78.1636 90.0012 78.0434 90.1107 77.9486C90.2201 77.8538 90.3512 77.7873 90.4923 77.7549C90.8027 77.6629 91.2282 77.9159 91.9296 78.0999C91.8146 78.2839 91.7226 78.4564 91.6421 78.6174L93.1369 78.2034C92.9069 76.6278 92.5735 74.0517 92.1135 70.4866C91.6536 66.9215 91.3202 64.3569 91.0902 62.7698L95.6895 77.4329L98.8056 76.4783L92.378 55.5475L91.4926 55.8235C91.492 56.0708 91.4057 56.3102 91.2485 56.501C91.0913 56.6918 90.8728 56.8222 90.6303 56.8701ZM51.2828 22.3687C45.2678 24.2077 39.725 27.3338 35.0391 31.53C30.3532 35.7263 26.6363 40.8922 24.1466 46.6692L25.9978 46.1056C29.7828 38.0778 36.0068 31.4512 43.7813 27.1718C51.5558 22.8925 60.4833 21.1793 69.2893 22.2767C69.5888 22.1311 69.9004 22.0118 70.2206 21.9202C70.2206 21.9202 70.4276 22.2767 70.5311 22.4722C75.8133 23.3153 80.8864 25.1576 85.479 27.9004L87.3877 27.3369C82.0892 23.9408 76.115 21.7393 69.88 20.8853C63.6451 20.0313 57.2991 20.5454 51.2828 22.3917V22.3687ZM33.5983 33.9497C33.5178 33.9497 33.4258 33.8462 33.3338 33.7887L33.5753 33.4551L33.7937 33.7082C33.7248 33.8002 33.6673 33.9382 33.5983 33.9497ZM90.5498 52.1319L95.9885 50.4758C95.7815 50.0503 95.5516 49.6018 95.2871 49.0958C96.5749 49.2338 97.0349 49.4868 96.8509 50.2458L99.2655 49.5098L98.3802 46.6117L93.8843 47.9802L91.9871 41.517L95.1606 40.5509L94.2523 37.5723L91.0787 38.5498L89.3424 32.8686L93.8268 31.4886L92.9414 28.5905L84.1682 31.2586L90.5498 52.1319ZM81.0981 32.2016L76.8782 33.5011L83.2483 54.363L87.4797 53.0749L81.0981 32.2016ZM120.802 46.6462C117.277 35.085 110.309 24.8745 100.829 17.3781C91.3497 9.88176 79.8091 5.45625 67.7485 4.69252C67.884 4.8906 67.9694 5.11861 67.9975 5.35697C68.0255 5.59534 67.9953 5.83695 67.9095 6.06108C67.9095 6.06108 67.8405 6.17608 67.8405 6.21058C82.7013 7.20141 96.609 13.8813 106.673 24.862C116.738 35.8428 122.185 50.2799 121.883 65.1734C120.733 63.4713 119.399 61.6082 117.973 59.5267C118.375 59.1985 118.724 58.8106 119.008 58.3766C119.253 57.9953 119.432 57.5754 119.537 57.1346C119.631 56.7082 119.666 56.2709 119.641 55.835C119.636 55.4212 119.59 55.009 119.503 54.6045C119.422 54.2153 119.319 53.8313 119.192 53.4544C118.952 52.5645 118.529 51.7343 117.95 51.0163C117.453 50.4205 116.8 49.9745 116.065 49.7283C115.322 49.4911 114.543 49.3936 113.765 49.4408C112.797 49.5091 111.84 49.6905 110.913 49.9813L106.314 51.3843L112.684 72.1887L116.904 70.9006L113.96 61.2862L114.662 61.0677L119.986 69.9576L121.676 69.4401C120.59 80.8853 116.123 91.7484 108.844 100.646C101.565 109.544 91.8032 116.073 80.8013 119.403C69.7995 122.733 58.0557 122.713 47.0654 119.345C36.0752 115.977 26.3357 109.414 19.0873 100.491C19.3104 100.543 19.5372 100.578 19.7657 100.595C20.6189 100.631 21.4717 100.514 22.2839 100.25C23.0907 100.004 23.8464 99.6145 24.5146 99.0997C25.0612 98.6749 25.5152 98.1426 25.8484 97.5357C26.1523 96.9305 26.3469 96.2764 26.4233 95.6036C26.5096 94.8932 26.5096 94.1749 26.4233 93.4645C26.3263 92.6867 26.1687 91.9176 25.9519 91.1644L25.4114 89.3933L21.2835 90.6584L21.8469 92.8895C21.9758 93.3093 22.0832 93.7353 22.1689 94.166C22.2449 94.5449 22.2872 94.9297 22.2954 95.3161C22.3176 95.6875 22.2253 96.0568 22.0309 96.3741C21.8375 96.6608 21.5479 96.8688 21.2145 96.9606C19.9842 97.3401 19.0643 96.5006 18.4434 94.4535C18.3736 94.4145 18.3081 94.3682 18.2479 94.3155L18.3514 94.166L15.6838 85.4372C15.0514 83.3786 15.3503 82.1596 16.5692 81.7915C16.8533 81.7001 17.1589 81.7001 17.443 81.7915C17.6983 81.8677 17.9285 82.0106 18.11 82.2056C18.3244 82.434 18.5028 82.6938 18.6389 82.9761C18.7945 83.2706 18.9327 83.5739 19.0528 83.8846C19.1448 84.1491 19.2598 84.4711 19.3748 84.8507L19.9612 86.7827L24.1466 85.5292L23.5947 83.7351C23.3697 82.9692 23.0732 82.226 22.7093 81.5155C22.3903 80.8899 21.9837 80.3129 21.502 79.802C21.0598 79.3074 20.5198 78.9099 19.9161 78.6347C19.3125 78.3596 18.6583 78.2127 17.995 78.2034C17.1921 78.1912 16.3924 78.3077 15.6263 78.5484C11.5942 79.7905 10.3294 82.8572 11.8318 87.7488L12.8322 91.0149C8.10122 82.0474 5.80744 71.9946 6.1803 61.8621C6.55316 51.7297 9.57959 41.8727 14.9569 33.2773C20.3341 24.6819 27.8737 17.6494 36.8214 12.8833C45.7691 8.11715 55.8112 5.78447 65.9432 6.11858L65.1958 5.75057C65.2993 5.30205 65.3798 4.92253 65.4718 4.60052C61.7376 4.5074 58.003 4.76925 54.3184 5.38255C54.2484 5.54332 54.1426 5.68597 54.0091 5.79959C53.8756 5.9132 53.7178 5.99478 53.548 6.03808C53.3448 6.08757 53.1323 6.08394 52.9309 6.02755C52.7296 5.97115 52.5461 5.86389 52.3981 5.71606C50.4779 6.10708 48.5462 6.5901 46.6489 7.17662C35.2257 10.6474 25.1229 17.5002 17.673 26.8309C17.903 27.1414 17.7535 27.6359 17.2821 28.4755C17.1556 28.2454 17.0406 28.0269 16.9256 27.7854C8.35434 38.9309 4.01324 52.7557 4.67433 66.8013C5.33543 80.8468 10.9559 94.2026 20.5361 104.493C20.6626 104.263 20.8121 104.022 20.9731 103.711C21.387 104.068 21.8814 104.344 21.8469 104.493C21.7653 104.811 21.5888 105.096 21.341 105.31C28.566 112.781 37.6252 118.224 47.613 121.095C57.6007 123.967 68.1671 124.165 78.2557 121.672C88.3443 119.178 97.6017 114.079 105.102 106.885C112.603 99.6905 118.084 90.6531 120.997 80.676C120.997 80.676 120.871 80.5035 120.894 80.4575C120.917 80.4115 121.032 80.239 121.135 80.216C122.174 76.5523 122.859 72.7975 123.182 69.003L124.332 68.658C124.022 68.2095 123.677 67.7265 123.332 67.255C123.718 60.2859 122.862 53.3036 120.802 46.6347V46.6462ZM98.2997 16.446C98.2077 16.446 98.0927 16.446 98.0352 16.446C97.9604 16.3387 97.8986 16.2229 97.8512 16.101C98.0122 16.101 98.1617 16.101 98.1732 16.101C98.2312 16.2095 98.2738 16.3257 98.2997 16.446ZM115.271 55.8005C115.32 56.1241 115.343 56.4509 115.34 56.7781C115.337 57.1197 115.25 57.4553 115.087 57.7556C114.925 58.0369 114.662 58.2465 114.351 58.3421L113.202 58.7101L111.488 53.1094L112.891 52.6839C113.175 52.6004 113.479 52.6292 113.742 52.7644C114.024 52.9171 114.258 53.1437 114.42 53.4199C114.587 53.6826 114.736 53.9553 114.869 54.2365C114.983 54.4783 115.079 54.7282 115.156 54.984C115.221 55.2518 115.259 55.5253 115.271 55.8005ZM21.9159 98.7892C21.9532 98.0838 22.0728 97.3852 22.2724 96.7076C22.3759 96.3626 22.7553 96.0981 23.0198 95.7876C23.2842 96.1096 23.7097 96.3856 23.7787 96.7421C23.7952 97.3142 23.6616 97.8806 23.3913 98.385C23.121 98.8894 22.7233 99.3143 22.2379 99.6172C22.1114 99.3182 21.8469 99.0422 21.9159 98.7892ZM17.6845 97.8117C17.3626 97.0641 17.6845 96.6616 18.4549 96.3741C18.9838 97.0296 19.0183 97.5242 18.3284 98.0072C18.2133 98.0312 18.094 98.0259 17.9815 97.9917C17.869 97.9575 17.7669 97.8956 17.6845 97.8117ZM120.089 83.4361C119.941 83.4927 119.777 83.4927 119.629 83.4361C119.558 83.3319 119.529 83.2043 119.549 83.0796C119.716 83.0008 119.895 82.9466 120.078 82.9186C120.089 83.1831 120.135 83.4016 120.089 83.4361ZM46.2465 42.8395L52.6281 63.7243L56.848 62.4363L50.4664 41.5515L46.2465 42.8395ZM51.7427 52.1204C50.7769 52.1204 50.3629 51.5569 50.3399 50.0388C51.1218 50.7748 51.6047 51.2463 52.0992 51.6949C52.0187 51.8444 51.9037 51.9824 51.7427 52.1204ZM64.207 57.1116C63.9474 57.2086 63.6616 57.2086 63.4021 57.1116C63.1489 57.0087 62.9213 56.8517 62.7352 56.6516C62.5202 56.3851 62.3351 56.0959 62.1833 55.789C62.0134 55.4571 61.8636 55.1153 61.7348 54.7655C61.6198 54.4435 61.5049 54.0755 61.3669 53.6154L57.3424 55.743C57.6169 56.5595 58.0039 57.3336 58.4923 58.0431C58.9553 58.7015 59.5223 59.2802 60.171 59.7567C60.8499 60.2426 61.6414 60.5474 62.4707 60.6422C63.3903 60.765 64.3258 60.6785 65.2073 60.3892C65.6054 60.2807 65.9908 60.1304 66.3572 59.9407C66.3731 59.8221 66.4129 59.7079 66.4742 59.6052C66.5354 59.5024 66.6169 59.4131 66.7136 59.3427V59.7222C67.4955 59.2564 68.1541 58.6096 68.6339 57.8361C69.0056 57.2333 69.2397 56.5558 69.3192 55.852C69.3987 55.1482 69.3217 54.4355 69.0938 53.7649C68.8792 53.0284 68.5659 52.3243 68.1624 51.6719C67.822 51.1303 67.4079 50.6388 66.9321 50.2113C66.9321 50.2113 66.8401 50.2113 66.8056 50.2113C66.7711 50.2113 66.8056 50.1423 66.8056 50.0963C66.776 50.0724 66.749 50.0454 66.7251 50.0158C66.2108 49.5863 65.6607 49.2016 65.0808 48.8658C64.4498 48.4867 63.7971 48.1449 63.1261 47.8422L62.0913 47.4052C61.6083 47.2097 61.2174 47.0487 60.9414 46.8992C60.5945 46.7209 60.2568 46.5251 59.9296 46.3127C59.199 45.8375 58.6642 45.1147 58.4233 44.2771C58.2796 43.8243 58.2796 43.3382 58.4233 42.8855C58.4726 42.6739 58.5808 42.4805 58.7355 42.3278C58.8902 42.1752 59.0849 42.0695 59.2972 42.023C59.5347 41.9359 59.7955 41.9359 60.0331 42.023C60.2772 42.1187 60.486 42.2874 60.631 42.506C60.796 42.725 60.9385 42.96 61.0564 43.2075C61.1806 43.4635 61.2844 43.7288 61.3669 44.0011C61.3669 44.1161 61.4359 44.2656 61.4819 44.4496L61.5853 44.8521L65.7593 42.92C65.7593 42.782 65.6903 42.667 65.6558 42.5635V42.414C65.4526 41.7034 65.1073 41.0414 64.6409 40.4682C64.1744 39.8949 63.5965 39.4223 62.9422 39.0789C62.3007 38.7184 61.5916 38.4944 60.8594 38.4212C60.1273 38.348 59.3879 38.427 58.6877 38.6534C57.0756 39.0303 55.6711 40.0149 54.7668 41.402C54.3831 42.0819 54.1506 42.8366 54.0851 43.6146C54.0196 44.3926 54.1227 45.1756 54.3874 45.9101C54.5507 46.4676 54.7865 47.0012 55.0888 47.4972C55.3472 47.9105 55.6477 48.2959 55.9856 48.6472C56.3307 48.9922 56.7169 49.2935 57.1355 49.5443C57.5057 49.7884 57.8896 50.0111 58.2853 50.2113C58.6073 50.3723 59.0212 50.5563 59.5501 50.7863L61.2059 51.4994C62.4139 51.9937 63.4777 52.7848 64.299 53.7994C64.2745 53.7091 64.2745 53.6138 64.299 53.5234C64.4666 53.4447 64.6448 53.3905 64.8279 53.3624C64.8279 53.5694 64.8279 53.7879 64.8279 53.8224C64.6894 53.8923 64.5311 53.9126 64.3794 53.8799C64.6612 54.2598 64.8787 54.6832 65.0234 55.1335C65.3338 56.1915 65.0694 56.8586 64.2415 57.1116H64.207ZM67.576 51.8099C67.576 51.9709 67.576 52.1664 67.507 52.2814C67.3474 52.4409 67.1486 52.5557 66.9307 52.6142C66.7127 52.6728 66.4832 52.673 66.2652 52.6149C66.3227 52.4999 66.3457 52.3619 66.4262 52.2929C66.638 52.1172 66.8695 51.9666 67.1161 51.8444C67.2777 51.805 67.4449 51.7933 67.6105 51.8099H67.576ZM65.5753 50.8323C65.6903 50.5333 65.9087 50.5103 66.1847 50.6598C66.1847 50.9933 65.9892 51.1428 65.6903 51.0623C65.6673 51.0508 65.5408 50.8898 65.6098 50.8323H65.5753ZM65.5408 56.9391C65.5966 57.0526 65.6391 57.1722 65.6673 57.2956C65.5753 57.2956 65.4488 57.2956 65.4028 57.2956C65.3568 57.2956 65.2993 57.1116 65.2188 56.9506C65.3913 56.9506 65.5408 56.9046 65.5408 56.9391ZM107.901 46.6692C108.466 46.4042 109.002 46.0804 109.499 45.7031C109.915 45.3905 110.267 44.9999 110.534 44.5531C110.772 44.152 110.951 43.718 111.063 43.265C111.181 42.776 111.22 42.2713 111.178 41.77C111.141 41.1942 111.064 40.6216 110.948 40.0564C110.821 39.4929 110.649 38.8374 110.419 38.1013L108.326 31.2011C108.03 30.1647 107.618 29.1654 107.096 28.2224C106.68 27.5096 106.095 26.9095 105.394 26.4744C104.631 26.0442 103.762 25.8407 102.888 25.8879C101.679 25.9507 100.484 26.175 99.3345 26.5549L94.9881 27.9464L101.37 48.8312L105.682 47.5087C106.446 47.2876 107.192 47.0069 107.912 46.6692H107.901ZM100.277 29.5795C100.972 29.3252 101.714 29.2271 102.451 29.292C102.934 29.3955 103.278 29.7865 103.485 30.442L106.935 41.6895C107.017 41.9535 107.082 42.2224 107.13 42.4945C107.171 42.6918 107.171 42.8953 107.13 43.0925C107.098 43.2543 107.032 43.4073 106.935 43.541C106.814 43.6887 106.66 43.8067 106.487 43.8861C106.274 44.0068 106.051 44.1069 105.82 44.1851C105.59 44.2771 105.268 44.3806 104.877 44.4956L100.277 29.5795ZM100.277 11.2593C100.29 11.3199 100.29 11.3826 100.277 11.4433C100.121 11.604 99.9239 11.7189 99.7071 11.7756C99.4902 11.8324 99.262 11.8288 99.0471 11.7653C99.0471 11.6618 99.1161 11.5238 99.1965 11.4548C99.4093 11.2803 99.6406 11.1298 99.8865 11.0063H99.9554C99.553 10.7303 99.1506 10.4772 98.8056 10.2127C98.7122 10.2435 98.6115 10.2435 98.5182 10.2127C98.4809 10.1848 98.4509 10.1482 98.4309 10.1062C98.4108 10.0641 98.4013 10.0178 98.4032 9.97123C86.7968 2.59872 73.1243 -0.837178 59.4121 0.172847C59.3765 0.252926 59.3342 0.329867 59.2857 0.402856C59.2519 0.327722 59.2135 0.254747 59.1707 0.184348C43.1265 1.39854 28.1282 8.61259 17.1628 20.3898C6.19752 32.1669 0.0697693 47.643 0 63.7358L0.172476 63.8508C0.172476 63.9543 0.0689903 64.1038 0.0114984 64.1958C0.0359193 75.2124 2.90312 86.036 8.33562 95.6194C13.7681 105.203 21.582 113.221 31.021 118.899C40.46 124.577 51.2045 127.722 62.2148 128.029C73.2251 128.336 84.1282 125.796 93.8691 120.653C103.61 115.511 111.859 107.941 117.817 98.6753C123.776 89.4099 127.242 78.763 127.881 67.765C128.519 56.767 126.309 45.7903 121.463 35.8972C116.617 26.0041 109.3 17.5296 100.22 11.2938L100.277 11.2593ZM82.064 123.124C73.3352 125.794 64.1235 126.498 55.0906 125.185C46.0576 123.871 37.4276 120.573 29.8204 115.528C22.2132 110.482 15.8176 103.814 11.0931 96.0024C6.36851 88.191 3.43223 79.4299 2.49515 70.3486C2.3479 70.4663 2.18032 70.5559 2.00072 70.6131C1.65058 70.6779 1.28897 70.6037 0.992682 70.4061C0.696399 70.2086 0.488787 69.9033 0.413942 69.5551C0.382591 69.4013 0.383032 69.2428 0.415237 69.0892C0.447443 68.9356 0.510732 68.7902 0.601209 68.662C0.691686 68.5338 0.807437 68.4255 0.941337 68.3437C1.07524 68.262 1.22446 68.2085 1.37981 68.1865C1.54267 68.1456 1.71251 68.1409 1.87738 68.1727C2.04226 68.2045 2.19818 68.272 2.33417 68.3705C1.47069 56.2502 4.20258 44.1445 10.1876 33.5702C10.0695 33.4163 9.98345 33.2403 9.9346 33.0526C9.90149 32.8981 9.90058 32.7383 9.93195 32.5834C9.96332 32.4285 10.0263 32.2816 10.1169 32.1521C10.2076 32.0226 10.3239 31.9132 10.4587 31.8307C10.5935 31.7482 10.7439 31.6944 10.9005 31.6726C11.0341 31.6552 11.1693 31.6552 11.3029 31.6726C16.5339 23.1424 23.757 16.0096 32.3517 10.8868C40.9463 5.76401 50.6558 2.80437 60.6462 2.26203C70.6366 1.7197 80.6094 3.61089 89.7079 7.77317C98.8065 11.9355 106.759 18.2444 112.882 26.1583C119.006 34.0721 123.117 43.3543 124.863 53.2077C126.609 63.061 125.938 73.191 122.907 82.7276C119.876 92.2643 114.576 100.923 107.462 107.959C100.348 114.995 91.6322 120.199 82.064 123.124ZM120.308 90.3364C120.308 90.3364 120.193 90.3364 120.089 90.4169C119.986 90.4974 120.089 90.2329 120.089 90.1984C120.141 90.1518 120.205 90.1201 120.273 90.1064C120.296 90.1808 120.308 90.2584 120.308 90.3364ZM121.952 89.8764H121.745C121.492 89.5888 121.526 89.3243 121.963 88.9218C121.963 89.3473 121.952 89.6118 121.952 89.8764Z" fill="#EF0A0A"/>
</g>
</g>
<defs>
<clipPath id="clip0_33_18276">
<rect width="128" height="128" fill="white"/>
</clipPath>
</defs>
</svg>
