<svg width="256" height="304" viewBox="0 0 256 304" fill="none" xmlns="http://www.w3.org/2000/svg">
<path d="M126.331 68.0477L113.599 2M149.142 50.5411L157.364 17.3846M149.142 216.324L166.648 302M126.331 242.584L120.761 278.393M201.659 112.004L252.32 85.5544M61.6123 112.004L4.32031 76.0053M36.6797 125.342H9.62513M74.3438 191.39L25.2743 232.504M207.229 178.241L246.22 198.04M133.829 112.004L174.848 76.0053L162.615 132.163L212.269 146.202L162.615 160.242L174.848 198.04L137.787 178.241L101.806 227.199L106.124 168.881L36.6797 156.642L95.5631 132.163L84.1751 78.8852L133.829 112.004Z" stroke="#E7D101" stroke-width="13"/>
</svg>
